<svg width="133" height="133" viewBox="0 0 133 133" fill="none" xmlns="http://www.w3.org/2000/svg">
<g filter="url(#filter0_d)">
<rect x="4.5" y="0.5" width="124" height="124" fill="#579C87" stroke="#21926F"/>
<path d="M51 69.5C51 81.156 42.1688 90 32 90C21.8312 90 13 81.156 13 69.5C13 57.844 21.8312 49 32 49C42.1688 49 51 57.844 51 69.5Z" stroke="#FDCB46" stroke-width="12"/>
<path d="M72.5151 64.8782C72.515 64.8785 72.5149 64.8787 73 65L72.5149 64.8787L72.5 64.9384V65V95.5H57.5V24.5H72.5V49V50.142L73.339 49.3675L73.3391 49.3674L73.3392 49.3674L73.3404 49.3663L73.3463 49.3608L73.3721 49.3375C73.3955 49.3165 73.4311 49.2847 73.4785 49.2432C73.5733 49.1602 73.7153 49.0381 73.9012 48.8847C74.2732 48.5777 74.8205 48.1456 75.5168 47.6494C76.9105 46.656 78.8947 45.4105 81.2595 44.3971C85.9928 42.3685 92.1838 41.2934 98.2428 44.9287C104.384 48.6134 107.444 53.3942 108.973 57.2469C109.738 59.1756 110.12 60.8733 110.311 62.0855C110.406 62.6914 110.453 63.1753 110.477 63.5052C110.489 63.6702 110.494 63.7966 110.497 63.8804C110.499 63.9223 110.499 63.9536 110.5 63.9737L110.5 63.9954L110.5 63.9999V64V64.0005V95.5H96.5V65V64.9627L96.4945 64.9258L96 65C96.4945 64.9258 96.4944 64.9256 96.4944 64.9253L96.4943 64.9245L96.4939 64.9222L96.4928 64.9149L96.4887 64.8898C96.4852 64.8683 96.4799 64.8376 96.4728 64.7983C96.4585 64.7197 96.4366 64.6066 96.4055 64.4639C96.3434 64.1785 96.2442 63.7741 96.095 63.2902C95.7971 62.324 95.2968 61.0315 94.4865 59.735C92.858 57.1294 89.9654 54.5 85 54.5C80.0433 54.5 76.9082 57.1197 75.0327 59.7065C74.097 60.9971 73.4697 62.2847 73.0762 63.2485C72.8791 63.7311 72.7399 64.1344 72.6495 64.4188C72.6042 64.5611 72.5712 64.6739 72.5491 64.7521C72.5381 64.7913 72.5298 64.8218 72.5242 64.8431L72.5176 64.868L72.5158 64.8752L72.5153 64.8774L72.5151 64.8782Z" fill="#FDCB46" stroke="#FDCB46"/>
<rect x="114" y="24" width="9" height="57" fill="#FDCB46"/>
<ellipse cx="118.5" cy="91" rx="4.5" ry="5" fill="#FDCB46"/>
</g>
<defs>
<filter id="filter0_d" x="0" y="0" width="133" height="133" filterUnits="userSpaceOnUse" color-interpolation-filters="sRGB">
<feFlood flood-opacity="0" result="BackgroundImageFix"/>
<feColorMatrix in="SourceAlpha" type="matrix" values="0 0 0 0 0 0 0 0 0 0 0 0 0 0 0 0 0 0 127 0"/>
<feOffset dy="4"/>
<feGaussianBlur stdDeviation="2"/>
<feColorMatrix type="matrix" values="0 0 0 0 0 0 0 0 0 0 0 0 0 0 0 0 0 0 0.25 0"/>
<feBlend mode="normal" in2="BackgroundImageFix" result="effect1_dropShadow"/>
<feBlend mode="normal" in="SourceGraphic" in2="effect1_dropShadow" result="shape"/>
</filter>
</defs>
</svg>
