<svg width="345" height="16" viewBox="0 0 345 16" fill="none" xmlns="http://www.w3.org/2000/svg">
<path d="M20.4984 8.25001H20.5H340.314C340.334 8.31261 340.358 8.39017 340.386 8.48039C340.466 8.735 340.581 9.09075 340.721 9.49569C340.999 10.303 341.378 11.3156 341.776 12.1118C342.174 12.9068 342.806 13.9172 343.334 14.7228C343.599 15.127 343.839 15.482 344.013 15.736C344.016 15.7404 344.019 15.7449 344.022 15.7493L21.0132 15.25L20.9991 15.2485L20.9197 15.2398C20.8497 15.232 20.746 15.2199 20.6123 15.2034C20.3449 15.1702 19.9572 15.1189 19.4779 15.0463C18.5189 14.901 17.1941 14.6707 15.731 14.3307C12.7936 13.6482 9.34113 12.5327 7.1551 10.8039C5.34224 9.37023 3.61211 6.78281 2.32693 4.52674C1.68702 3.40341 1.16216 2.37086 0.797304 1.61915C0.717003 1.45371 0.644475 1.30191 0.5802 1.1658C0.712401 1.2491 0.860793 1.34219 1.02358 1.4437C1.74353 1.89268 2.74532 2.50665 3.87264 3.16659C6.12201 4.48337 8.88933 5.99401 10.9141 6.73479C12.9445 7.4776 15.3435 7.85518 17.2256 8.04788C18.1685 8.14443 18.9856 8.19494 19.5672 8.22132C19.8581 8.23451 20.0902 8.24168 20.2499 8.24555C20.3298 8.24748 20.3916 8.2486 20.4335 8.24923L20.4814 8.24985L20.4939 8.24997L20.4971 8.25H20.498H20.4983C20.4983 8.25 20.4984 8.25 20.5 8.00001L20.4984 8.25001Z" fill="#0670F3" stroke="#0670F3" stroke-width="0.5"/>
</svg>
