<svg width="345" height="16" viewBox="0 0 345 16" fill="none" xmlns="http://www.w3.org/2000/svg">
<path d="M20.9182 8.08421H20.9198H340.734C340.754 8.14681 340.778 8.22437 340.806 8.31459C340.886 8.5692 341.001 8.92495 341.141 9.32989C341.419 10.1372 341.798 11.1498 342.196 11.946C342.594 12.741 343.226 13.7514 343.754 14.557C344.019 14.9612 344.259 15.3162 344.433 15.5702C344.436 15.5746 344.439 15.5791 344.442 15.5835L21.433 15.0842L21.4189 15.0827L21.3395 15.074C21.2695 15.0662 21.1658 15.0541 21.0321 15.0376C20.7647 15.0044 20.377 14.9531 19.8977 14.8805C18.9387 14.7352 17.6139 14.5049 16.1508 14.1649C13.2134 13.4824 9.76092 12.3669 7.57489 10.6381C5.76203 9.20443 4.03191 6.61701 2.74673 4.36094C2.10682 3.23761 1.58196 2.20506 1.2171 1.45335C1.1368 1.28791 1.06427 1.13611 1 1C1.1322 1.0833 1.28059 1.17639 1.44338 1.2779C2.16333 1.72688 3.16512 2.34085 4.29244 3.00079C6.54181 4.31757 9.30913 5.82821 11.3339 6.56899C13.3643 7.3118 15.7633 7.68938 17.6454 7.88208C18.5883 7.97863 19.4054 8.02914 19.987 8.05552C20.2779 8.06871 20.51 8.07588 20.6697 8.07975C20.7496 8.08168 20.8114 8.0828 20.8533 8.08343L20.9012 8.08405L20.9137 8.08417L20.9169 8.0842H20.9178H20.9181C20.9181 8.0842 20.9182 8.0842 20.9198 7.83421L20.9182 8.08421Z" fill="#229DF9" stroke="#229DF9" stroke-width="0.5"/>
</svg>
