<svg width="340" height="19" viewBox="0 0 340 19" fill="none" xmlns="http://www.w3.org/2000/svg">
<path d="M38.5174 9.52728C59.9356 9.22072 88.3765 8.74826 118.824 8.06238C182.562 6.62654 255.124 4.25488 290.441 0.509098C299.722 3.75587 312.076 6.24875 322.105 7.93061C327.143 8.77546 331.601 9.41687 334.801 9.8471C335.006 9.87473 335.206 9.9015 335.401 9.92739C335.189 9.94902 334.97 9.9715 334.745 9.99486C331.506 10.3313 327 10.8476 321.93 11.5675C311.841 12.9998 299.482 15.2428 290.44 18.49C259.596 14.9941 187.046 12.623 122.199 11.1251C90.5736 10.3946 60.7716 9.87162 38.5174 9.52728Z" fill="#C67412" stroke="#C67412"/>
</svg>
