<?xml version="1.0" standalone="no"?>
<!DOCTYPE svg PUBLIC "-//W3C//DTD SVG 1.1//EN" "http://www.w3.org/Graphics/SVG/1.1/DTD/svg11.dtd" >
<svg xmlns="http://www.w3.org/2000/svg" xmlns:xlink="http://www.w3.org/1999/xlink" version="1.1">
<metadata></metadata>
<defs>
<font id="cantata_oneregular" horiz-adv-x="0" >
<font-face units-per-em="2048" ascent="1638" descent="-410" />
<missing-glyph horiz-adv-x="682" />
<glyph />
<glyph />
<glyph unicode="&#xd;" horiz-adv-x="335" />
<glyph />
<glyph />
<glyph />
<glyph />
<glyph />
<glyph />
<glyph />
<glyph />
<glyph unicode="&#x9;" />
<glyph />
<glyph />
<glyph />
<glyph />
<glyph />
<glyph />
<glyph />
<glyph />
<glyph />
<glyph />
<glyph unicode=" "  horiz-adv-x="682" />
<glyph unicode="&#x09;" horiz-adv-x="682" />
<glyph unicode="&#xa0;" horiz-adv-x="682" />
<glyph unicode="!" horiz-adv-x="852" d="M265 1531q0 61 48 107.5t113 46.5t113 -46.5t48 -115.5q0 -19 -3 -34l-111 -1042h-94l-111 1042q-3 15 -3 42zM267 141q0 107 96 149q29 12 63 12q68 0 114 -46t46 -114.5t-45.5 -114t-114 -45.5t-114 45.5t-45.5 113.5z" />
<glyph unicode="&#x22;" horiz-adv-x="1196" d="M291 1559q-8 48 32 86.5t95.5 38.5t83.5 -25q51 -47 40 -103l-89 -536h-78zM669 1559q-8 48 32 86.5t95.5 38.5t83.5 -25q51 -47 40 -103l-89 -536h-78z" />
<glyph unicode="#" horiz-adv-x="1707" d="M201 392v118h289l105 392h-324v118h355l144 534l134 -33l-135 -501h305l144 534l134 -33l-135 -501h289v-118h-320l-105 -392h355v-118h-387l-132 -494l-134 33l123 461h-305l-132 -494l-134 33l123 461h-257zM633 510h305l105 392h-305z" />
<glyph unicode="$" horiz-adv-x="1366" d="M177 0v408h103q27 -109 98.5 -190.5t177.5 -122.5l34 485q-330 127 -384 318q-18 61 -18 137q0 153 128.5 254t330.5 118l13 189h79l-13 -186l46 -2q23 -1 44 -4l14 192h79l-14 -205q109 -27 169 -78q24 35 26 77h93v-372h-96q-23 196 -199 273l-35 -503 q226 -85 312.5 -172.5t86.5 -199.5q0 -199 -129.5 -309t-325.5 -125l-10 -152h-79l10 151q-57 2 -90 7l-11 -158h-79l12 172q-158 38 -243 114q-41 -46 -41 -116h-89zM390 1146q0 -78 44.5 -132.5t176.5 -120.5l30 431q-175 -19 -232 -112q-19 -30 -19 -66zM634 73 q41 -8 90 -10l31 459l-76 26q-8 2 -12 4zM688 857l88 -38l34 497q-46 10 -90 11zM803 66q179 16 236 110q19 32 19 70q0 81 -47.5 136t-177.5 109z" />
<glyph unicode="%" horiz-adv-x="1877" d="M198 1189.5q0 162.5 94 266t232.5 103.5t229.5 -102.5t91 -267t-90.5 -265.5t-230.5 -101t-233 102t-93 264.5zM298 0l1138 1530h99l-1135 -1530h-102zM378 1230q0 -176 31.5 -254.5t112.5 -78.5q145 0 145 292q0 138 -22.5 193.5t-51 78t-71.5 22.5q-82 0 -116 -85 q-28 -69 -28 -168zM1032 345.5q0 162.5 94 266t232.5 103.5t229.5 -102.5t91 -267t-90.5 -265.5t-231 -101t-233 102t-92.5 264.5zM1212 386q0 -176 31.5 -254.5t112.5 -78.5q145 0 145 292q0 214 -73 273q-29 22 -72 22q-82 0 -113 -77.5t-31 -176.5z" />
<glyph unicode="&#x26;" horiz-adv-x="1708" d="M144 396q0 158 108 273q88 95 224 139q-168 204 -168 367.5t138.5 258.5t303 95t271.5 -63t117 -169q4 -14 4 -35q0 -51 -42 -91.5t-98 -40.5t-97 41t-41 90q0 96 81 134q-62 57 -173.5 57t-170 -55t-58.5 -149q0 -140 205 -382q390 -431 444 -487q74 167 74 390h-173v78 h434v-78h-160q-6 -272 -105 -462q194 -190 310 -190q58 0 95 25l37 -51q-89 -111 -256.5 -111t-329.5 138q-159 -138 -396.5 -138t-407.5 113t-170 303zM386 406q0 -138 102.5 -234.5t270.5 -96.5t291 106q-79 77 -162 173l-182 202q-125 131 -168 180q-100 -79 -138 -218 q-14 -49 -14 -112z" />
<glyph unicode="'" horiz-adv-x="855" d="M309 1559q-8 48 32 86.5t95.5 38.5t83.5 -25q51 -47 40 -103l-89 -536h-78z" />
<glyph unicode="(" horiz-adv-x="1024" d="M276 610q0 555 356 906q136 133 343 249l48 -56q-410 -290 -487 -783q-25 -155 -25 -292q0 -814 512 -1137l-48 -57q-292 141 -495.5 449t-203.5 721z" />
<glyph unicode=")" horiz-adv-x="1024" d="M1 -504q410 290 487 783q25 155 25 292q0 814 -512 1137l48 57q292 -141 495.5 -449t203.5 -721q0 -555 -356 -906q-136 -133 -343 -249z" />
<glyph unicode="*" horiz-adv-x="1193" d="M147 1350q0 49 31.5 76.5t66.5 27.5t68 -23l249 -164l-62 315l1 -1q-3 12 -3 28q0 35 33 65t61 30q48 0 78 -32t30 -56t-5 -49l-69 -301l267 168q25 14 49 14q44 0 74 -31.5t30 -62.5q0 -54 -30 -78.5t-76 -31.5l-295 -38l231 -193q32 -27 32 -63q0 -59 -30 -86 t-70.5 -27t-62 22t-35.5 52l-118 260l-122 -269q-27 -59 -84 -59t-77 23q-31 38 -31 72t11 52.5t34 38.5l220 179l-305 43q-43 5 -67 37.5t-24 61.5z" />
<glyph unicode="+" horiz-adv-x="1536" d="M270 545v100h446v469h104v-469h446v-100h-446v-447h-104v447h-446z" />
<glyph unicode="," horiz-adv-x="683" d="M184 156q0 67 48 111q49 43 98 43q89 0 136 -52.5t47 -135.5q0 -140 -78.5 -280.5t-159.5 -192.5l-52 38q77 64 113 219q11 47 13 92q-66 0 -115.5 45.5t-49.5 112.5z" />
<glyph unicode="-" horiz-adv-x="1198" d="M237 546v100h724v-100h-724z" />
<glyph unicode="." horiz-adv-x="683" d="M182 141q0 107 96 149q29 12 63 12q68 0 114 -46t46 -114.5t-45.5 -114t-114 -45.5t-114 45.5t-45.5 113.5z" />
<glyph unicode="/" horiz-adv-x="1025" d="M6 -554l856 2237h157l-855 -2237h-158z" />
<glyph unicode="0" horiz-adv-x="1537" d="M142 761q0 348 180.5 568.5t445.5 220.5q134 0 249 -57t199 -161q179 -220 179 -570.5t-179 -568.5q-83 -102 -198 -157.5t-248 -55.5q-268 0 -448 216.5t-180 564.5zM439 790q0 -125 6 -214t20 -166q30 -166 102.5 -256.5t200.5 -90.5q290 0 325 513q6 89 6 214 q0 313 -65 478q-78 199 -266 199q-271 0 -316 -423q-13 -129 -13 -254z" />
<glyph unicode="1" horiz-adv-x="1024" d="M204 0v78h178v1368l-172 -16v77l438 47v-1476h179v-78h-623z" />
<glyph unicode="2" horiz-adv-x="1366" d="M150 0v89l146 121q173 150 322 330q272 328 272 606q0 175 -76.5 249.5t-185.5 74.5q-201 0 -297 -139q85 -9 115 -89q8 -23 8 -50q0 -58 -43.5 -97t-89.5 -39q-79 0 -122 42t-43 112q0 134 152 238q154 102 369.5 102t356.5 -103t141 -304q0 -239 -241 -500 q-137 -148 -272 -253l-217 -165h539q108 0 139 163h74v-388h-1047z" />
<glyph unicode="3" horiz-adv-x="1366" d="M162 278q0 61 42.5 103.5t88.5 42.5q76 0 119 -43t43 -95t-26.5 -92t-76.5 -56q71 -58 172 -70q42 -5 116 -5q150 0 231.5 93t81.5 242t-106.5 247t-265.5 98q-55 0 -110 -13v93q191 0 294.5 102t103.5 260q0 282 -263 282q-161 0 -238 -77q51 -12 80 -51.5t29 -77.5 q0 -70 -41 -112t-92 -42q-83 0 -119 46t-36 95.5t20 87.5t55 70q68 65 176.5 104.5t222.5 39.5q231 0 356.5 -96.5t125.5 -258.5q0 -131 -96.5 -238t-255.5 -138q196 -12 317.5 -112.5t121.5 -255.5q0 -221 -173 -346t-446 -125q-182 0 -316.5 82t-134.5 216z" />
<glyph unicode="4" horiz-adv-x="1366" d="M40 399v67l776 1064h187v-1045h314l-2 -86h-312v-321h229v-78h-763v78h268v321h-697zM177 485h560v782z" />
<glyph unicode="5" horiz-adv-x="1365" d="M165 278q0 61 42.5 103.5t88.5 42.5q76 0 119 -43t43 -111.5t-64 -113.5q-20 -14 -47 -21q84 -75 253 -75q255 0 330 230q26 80 26 176q0 183 -92 285.5t-238 102.5q-186 0 -374 -93l54 769h877l-51 -382h-78l-6 63q-9 83 -91 99q-29 5 -70 5h-493l-37 -442q97 66 256 91 q48 7 91 7q247 0 384 -129t137 -339q0 -245 -171.5 -384t-443.5 -139q-175 0 -310 82.5t-135 215.5z" />
<glyph unicode="6" horiz-adv-x="1365" d="M115 714q0 340 173 577q118 163 302 227q94 32 190 32q173 0 279.5 -61.5t106.5 -162.5q0 -64 -35.5 -105t-84.5 -41q-77 0 -115.5 42t-38.5 108t55 100q-51 49 -155 49q-194 0 -294 -182t-106 -493q152 177 400 177q77 0 165 -26t157 -83q153 -125 153 -352 t-164.5 -383.5t-391.5 -156.5q-265 0 -430.5 197t-165.5 537zM392 676q10 -436 180 -568q59 -45 133 -45q142 0 221 114q77 114 77 303q0 288 -151 372q-52 29 -114 29q-217 0 -346 -205z" />
<glyph unicode="7" horiz-adv-x="1195" d="M93 1088l65 442h968v-70q-281 -437 -362 -979q-25 -168 -25 -291.5t7 -189.5h-325q-2 30 -2 101t24.5 190t66.5 237q80 224 203.5 434t246.5 353h-549q-83 0 -135.5 -27.5t-76.5 -96.5q-6 -20 -14 -50l-14 -53h-78z" />
<glyph unicode="8" horiz-adv-x="1366" d="M193 374q0 230 294 374q-269 163 -269 381q0 193 166 313q148 108 322 108h10q217 0 346 -99.5t129 -246.5q0 -188 -189 -308q-54 -34 -109 -56q168 -81 233.5 -143.5t96 -123.5t30.5 -144t-39 -164.5t-109 -144.5q-156 -140 -391 -140t-378 109.5t-143 284.5zM394 381.5 q0 -129.5 98.5 -218t234 -88.5t211.5 80t76 199t-203 224l-123 63q-65 31 -129 66q-78 -57 -108 -105q-57 -91 -57 -220.5zM444 1223q0 -107 110 -195q76 -61 252 -145l20 -10q171 93 171 313q0 152 -80.5 217.5t-198.5 65.5q-180 0 -249 -135q-25 -48 -25 -111z" />
<glyph unicode="9" horiz-adv-x="1365" d="M115 1039q0 210 165 360.5t391 150.5q265 0 430.5 -197t165.5 -537t-173 -577q-118 -163 -302 -227q-94 -32 -190 -32q-175 0 -276.5 58.5t-109.5 152.5v13q0 64 35.5 105t84.5 41q77 0 115.5 -42t38.5 -107t-56 -102q55 -48 158 -48q192 0 291.5 182.5t105.5 492.5 q-152 -177 -399 -177q-77 0 -165 27t-157 86q-153 131 -153 377zM358 80l3 -2l2 2h-5zM379 1070q0 -302 151 -390q52 -31 114 -31q111 0 200 56q88 56 145 149q-10 436 -179 568q-59 45 -133 45q-141 0 -219.5 -107.5t-78.5 -289.5z" />
<glyph unicode=":" horiz-adv-x="683" d="M182 141q0 107 96 149q29 12 63 12q68 0 114 -46t46 -114.5t-45.5 -114t-114 -45.5t-114 45.5t-45.5 113.5zM182 141q0 107 96 149q29 12 63 12q68 0 114 -46t46 -114.5t-45.5 -114t-114 -45.5t-114 45.5t-45.5 113.5zM182 878q0 107 96 148q29 13 63 13q68 0 114 -46 t46 -114.5t-45.5 -114t-114 -45.5t-114 45.5t-45.5 113.5z" />
<glyph unicode=";" horiz-adv-x="683" d="M182 878q0 107 96 149q29 12 63 12q68 0 114 -46t46 -114.5t-45.5 -114t-114 -45.5t-114 45.5t-45.5 113.5zM184 156q0 67 48 111q49 43 98 43q89 0 136 -52.5t47 -135.5q0 -140 -78.5 -280.5t-159.5 -192.5l-52 38q77 64 113 219q11 47 13 92q-66 0 -115.5 45.5 t-49.5 112.5z" />
<glyph unicode="&#x3c;" horiz-adv-x="1535" d="M340 508v74l819 478v-114l-691 -401l691 -391v-124z" />
<glyph unicode="=" horiz-adv-x="1536" d="M270 340v100h996v-100h-996zM270 680v100h996v-100h-996z" />
<glyph unicode="&#x3e;" horiz-adv-x="1535" d="M343 30l819 478v74l-819 478v-114l691 -401l-691 -391v-124z" />
<glyph unicode="?" horiz-adv-x="1364" d="M150 1343v11q0 5 1 10q0 59 38 119.5t104 109.5q150 111 374 111t387.5 -117t163.5 -308q0 -279 -268 -453q-109 -70 -231 -96l-53 -283h-97l-60 303q210 71 335 226.5t125 339.5q0 136 -85 219t-255.5 83t-266.5 -116q52 -15 84.5 -58t32.5 -90q0 -79 -46.5 -127 t-117 -48t-118 47.5t-47.5 116.5zM460 141q0 107 96 149q29 12 63 12q68 0 114 -46t46 -114.5t-45.5 -114t-114 -45.5t-114 45.5t-45.5 113.5z" />
<glyph unicode="@" horiz-adv-x="2385" d="M200 444.5q0 166.5 45.5 306t124.5 251.5q154 216 413 333.5t540 117.5q373 0 617 -182t244 -487.5t-167 -545.5q-112 -161 -276 -225q-84 -33 -185.5 -33t-163.5 28.5t-75 99.5q-141 -126 -318 -126q-128 0 -221.5 124t-93.5 338q0 265 176 438q162 158 382 158 q105 0 187 -59l6 39h240l-110 -801l-3 -15l-6 -51q0 -82 52 -82q125 0 242 109q168 158 226 431q18 85 18 196.5t-54 221t-154 185.5q-207 157 -563 157q-286 0 -521.5 -115t-372 -326.5t-136.5 -483.5t129 -448.5t328.5 -258t416.5 -81.5q353 0 640 120l31 -77 q-287 -121 -653.5 -121t-640.5 182q-211 140 -298 387q-46 129 -46 295.5zM942 514.5q0 -70.5 3.5 -110.5t12.5 -80q43 -201 172 -201q102 0 193 111l94 661q-58 49 -133.5 49t-122.5 -21t-83 -56q-66 -64 -101 -173t-35 -179.5z" />
<glyph unicode="A" horiz-adv-x="1534" d="M21 0v78h108l564 1452h116l603 -1452h102v-78h-545v78h150l-144 349h-607l-132 -349h180v-78h-395zM398 505h545l-284 691z" />
<glyph unicode="B" horiz-adv-x="1534" d="M106 0v78h170l1 1374h-171v78h754q235 0 349.5 -107.5t114.5 -276.5q0 -197 -182 -291q-54 -28 -114 -44q193 -23 295 -124t102 -248q0 -202 -147.5 -320.5t-421.5 -118.5h-750zM546 78h232q182 0 278.5 87t96.5 247q0 235 -187 314q-68 29 -166 29h-254v-677zM546 832 h245q217 0 259 186q13 56 13 120q0 152 -49 220q-66 94 -250 94h-218v-620z" />
<glyph unicode="C" horiz-adv-x="1534" d="M96 762q0 341 209.5 564.5t582.5 223.5q202 0 352 -82q42 -23 67 -46q40 47 42 108h82v-419h-85q-29 166 -158.5 261t-281.5 95q-502 0 -502 -696v-11q3 -281 112 -467q126 -215 366 -215q183 0 309.5 64.5t198.5 174.5l52 -48q-38 -91 -158 -174q-165 -115 -414 -115 q-354 0 -564 220.5t-210 561.5z" />
<glyph unicode="D" horiz-adv-x="1707" d="M83 0v78h200l1 1374h-201v78h674q603 0 780 -381q73 -157 73 -372q0 -286 -166 -499q-134 -171 -389 -241q-134 -37 -312 -37h-660zM553 78h178q315 0 451 157t136 535v31q-6 362 -145.5 506.5t-428.5 144.5h-191v-1374z" />
<glyph unicode="E" horiz-adv-x="1535" d="M71 0v79h200l1 1373h-201v78h1293v-436h-78q-5 83 -14 147.5t-38 109.5q-58 92 -236 101h-457v-628h250q85 0 130.5 27.5t55.5 96.5q2 20 3.5 42.5t3.5 44.5h84v-516h-84q-2 23 -3.5 53t-3.5 50q-10 69 -56.5 96.5t-129.5 27.5h-250v-668h428q263 0 319 243q16 70 21 144 h78v-465h-1316z" />
<glyph unicode="F" horiz-adv-x="1367" d="M52 1452v78h1253v-441h-78q-11 188 -61 259q-66 95 -247 104h-397v-657h216q84 0 134.5 28t60.5 96q2 20 3.5 45.5t3.5 47.5h82v-523h-82q-2 23 -3.5 53.5t-3.5 50.5q-18 124 -195 124h-216v-639h324v-78h-793v78h199l1 1374h-201z" />
<glyph unicode="G" horiz-adv-x="1707" d="M107 759.5q0 329.5 219 554.5q145 150 362 207q110 29 208 29q344 0 486 -129q22 25 44 109h81v-419h-85q-48 179 -182 267.5t-323 88.5q-351 0 -467 -359q-46 -143 -46 -318q0 -90 12 -188q51 -404 336 -510q80 -29 170 -29t153 16t109.5 39.5t73.5 50t30 47.5v385h-261 v78h632v-78h-129v-409q-61 -85 -238 -148.5t-365.5 -63.5t-342 61.5t-259.5 168.5q-218 220 -218 549.5z" />
<glyph unicode="H" horiz-adv-x="1707" d="M55 0v78h156l1 1374h-157v78h595v-78h-169v-646h744l1 646h-169v78h595v-78h-157v-1374h156v-78h-594v78h168v650h-744v-650h168v-78h-594z" />
<glyph unicode="I" horiz-adv-x="854" d="M95 0v78h197l1 1374h-198v78h664v-78h-197v-1374h197v-78h-664z" />
<glyph unicode="J" horiz-adv-x="854" d="M101 1452v78h655v-78h-197v-1317q0 -216 -113.5 -348t-286.5 -178l-41 73q61 28 95.5 78t55 151.5t20.5 469.5v1071h-188z" />
<glyph unicode="K" horiz-adv-x="1707" d="M141 0v78h190l1 1374h-191v78h665v-78h-205v-697l702 697h-149v78h447v-78h-175l-548 -544l678 -830h142v-78h-630v78h147l-515 654l-99 -98v-556h205v-78h-665z" />
<glyph unicode="L" horiz-adv-x="1367" d="M71 0v79l214 -1l1 1375h-168v77h615v-77h-178v-1375h306q263 0 319 243q16 70 21 144h78v-465h-1208z" />
<glyph unicode="M" horiz-adv-x="2049" d="M60 1452v78h522l451 -1113l448 1113h505v-78h-195v-1374h213v-78h-665v78h182l1 1331l-556 -1388h-40l-589 1395v-1338h181v-78h-456v78h184v1374h-186z" />
<glyph unicode="N" horiz-adv-x="1707" d="M93 0v78h174v1374h-174v78h453l810 -1205v1127h-194v78h475v-78h-183v-1452h-186l-903 1327v-1249h203v-78h-475z" />
<glyph unicode="O" horiz-adv-x="1711" d="M98 764.5q0 100.5 21.5 197t63.5 183.5q88 183 259.5 294t412.5 111q366 0 573 -244q185 -220 185 -544t-187 -544q-128 -150 -337 -208q-106 -30 -232.5 -30t-231.5 29.5t-189 82.5t-147.5 126.5t-105.5 161t-63.5 186t-21.5 199zM386 770q4 -284 104 -474 q124 -233 361 -233t365 233q38 69 73.5 185t35.5 243.5t-11.5 213t-35.5 162.5q-53 166 -158.5 266.5t-264.5 100.5q-248 0 -369 -222q-100 -185 -100 -456v-19z" />
<glyph unicode="P" horiz-adv-x="1364" d="M51 0v78h171l1 1374h-171v78h649q310 0 454.5 -127t144.5 -362t-150.5 -381.5t-444.5 -146.5h-213v-435h253v-78h-694zM492 582h188q239 0 312 260q27 93 27 192q0 198 -79 302q-85 116 -258 116h-190v-870z" />
<glyph unicode="Q" horiz-adv-x="1711" d="M98 767q0 317 190 539q210 244 571.5 244t568.5 -244q185 -220 185 -523t-145 -509q-156 -225 -439 -278l-196 -118q49 -13 94 -32l93 -36q112 -41 204 -41q123 0 229 116l52 -34q-29 -83 -127 -184.5t-208 -101.5q-71 0 -139.5 20.5t-135.5 44.5q-181 65 -245 65 q-127 0 -234 -116l-53 34q33 90 207 206q46 31 87 54l195 107q-238 0 -409 108t-258 287t-87 392zM386 770q4 -283 104 -474q124 -233 361 -233t365 233q38 69 73.5 185t35.5 243.5t-11.5 213t-35.5 162.5q-53 166 -158.5 266.5t-264.5 100.5q-248 0 -369 -222 q-100 -185 -100 -456v-19z" />
<glyph unicode="R" horiz-adv-x="1534" d="M76 0v78h161l1 1374h-162v78h679q575 0 575 -386q0 -175 -106 -279t-284 -133q235 -39 322 -242q35 -82 61.5 -180.5t47.5 -139.5q46 -92 136 -92h40l2 -83h-141q-196 0 -264 53q-69 54 -105 213q-33 145 -54 198q-44 114 -114 179t-181 65h-183v-625h234v-78h-665z M507 772h230q182 0 256 117q54 85 54 241t-63 230q-78 92 -265 92h-212v-680z" />
<glyph unicode="S" horiz-adv-x="1366" d="M177 0v408h103q39 -154 162.5 -249.5t298.5 -95.5q219 0 293 121q24 41 24 92q0 109 -77 187t-263.5 146.5t-282 125.5t-150.5 120q-97 111 -97 291t154.5 292t375.5 112q125 0 212.5 -29t133.5 -68q24 35 26 77h93v-372h-96q-15 148 -123.5 228.5t-251 80.5 t-232.5 -58.5t-90 -159.5t84 -177t343 -190q243 -99 339 -200.5t96 -250.5q0 -210 -147.5 -330.5t-357 -120.5t-364.5 84q-46 25 -76 52q-41 -46 -41 -116h-89z" />
<glyph unicode="T" horiz-adv-x="1535" d="M80 1049v481h1374v-481h-78q-9 195 -60 282q-65 111 -229 122h-185v-1375h200v-78h-669v78h199l1 1375h-186q-165 -11 -230 -122q-50 -85 -59 -282h-78z" />
<glyph unicode="U" horiz-adv-x="1539" d="M46 1452v78h552v-78h-146v-927q0 -363 204 -430q68 -22 132.5 -22t112 6t94.5 23q105 40 172.5 144t67.5 297v909h-156v78h400v-78h-146v-923q0 -277 -144 -413t-391 -136q-465 0 -584 352q-32 94 -32 227l1 893h-137z" />
<glyph unicode="V" horiz-adv-x="1539" d="M-13 1452v78h640v-78h-193l443 -1135l416 1135h-188v78h450v-78h-154l-555 -1472h-85l-640 1472h-134z" />
<glyph unicode="W" horiz-adv-x="2220" d="M-49 1452v78h645v-78h-200l377 -1109l392 1187h73l435 -1182l361 1104h-191v78h450v-78h-155l-496 -1472h-92l-435 1108l-372 -1108h-90l-555 1472h-147z" />
<glyph unicode="X" horiz-adv-x="1538" d="M15 1452v78h635v-78h-185l366 -546l402 546h-169v79h450v-79h-171l-460 -624l504 -750h136v-78h-634v78h182l-364 548l-406 -548h183v-78h-467v78h170l468 627l-494 747h-146z" />
<glyph unicode="Y" horiz-adv-x="1539" d="M10 1452v78h644v-78h-203l409 -719l406 719h-184v78h442v-78h-151l-457 -800v-574h199v-78h-667v78h198l1 512l-512 862h-125z" />
<glyph unicode="Z" horiz-adv-x="1538" d="M140 0v117l951 1335h-445q-193 0 -260 -80t-82 -281h-92v439h1163v-115l-938 -1337h573q192 0 258 102q47 72 52 257h93v-437h-1273z" />
<glyph unicode="[" horiz-adv-x="1024" d="M341 -560v2327h468v-78h-265v-2171h264v-78h-467z" />
<glyph unicode="\" horiz-adv-x="1025" d="M6 1683l855 -2237h158l-856 2237h-157z" />
<glyph unicode="]" horiz-adv-x="1024" d="M215 1689h265v-2171h-264v-78h467v2327h-468v-78z" />
<glyph unicode="^" horiz-adv-x="1707" d="M341 543l475 984h75l473 -984h-119l-395 846l-390 -846h-119z" />
<glyph unicode="_" horiz-adv-x="1368" d="M-10 -205h1388v-128h-1388v128z" />
<glyph unicode="`" horiz-adv-x="1707" d="M417 1517q2 49 40 77t78.5 23.5t60.5 -20t40 -45.5l220 -334l-31 -34l-354 222q-59 36 -54 111z" />
<glyph unicode="a" horiz-adv-x="1195" d="M92 278.5q0 133.5 105 210t270.5 76.5t276.5 -83v238q0 121 -30 164t-70.5 60t-89.5 17q-77 0 -130 -17.5t-71 -35.5q46 -14 71 -70q8 -20 8 -48q0 -55 -40 -91.5t-80 -36.5q-70 0 -109 37t-39 89t19 85.5t51 60.5q61 51 153.5 78t173.5 27q225 0 333 -91t108 -254v-533 q0 -83 41 -83t79 50l52 -43q-68 -103 -222 -103q-54 0 -109.5 34t-77.5 97q-116 -133 -311 -133q-148 0 -255 82.5t-107 216zM358 276q0 -155 109 -188q31 -10 63 -10q91 0 174 70q24 21 43 45v200q-85 83 -186 83t-152 -47.5t-51 -152.5z" />
<glyph unicode="b" horiz-adv-x="1365" d="M61 0v78h150v1526h-150v80h410v-770q116 126 355 126q78 0 163.5 -30.5t150.5 -95.5q139 -141 139 -394t-145 -396.5t-354 -143.5q-134 0 -247 55q-35 17 -62 38v-73h-410zM471 180q75 -81 197 -106q36 -8 70 -8q261 0 261 440q0 327 -141 412q-47 29 -120 29h-5 q-76 -1 -146.5 -43t-115.5 -111v-613z" />
<glyph unicode="c" horiz-adv-x="1026" d="M67 513.5q0 244.5 157.5 385.5t399.5 141q138 0 255.5 -61.5t117.5 -173.5q0 -60 -38 -98t-81 -38q-71 0 -110 33t-39 89q0 91 73 126q-74 46 -171 46q-288 0 -288 -449q0 -316 174 -408q58 -30 135 -30q182 0 294 116l52 -48q-128 -164 -394 -164q-94 0 -197 36 t-179 105q-161 148 -161 392.5z" />
<glyph unicode="d" horiz-adv-x="1365" d="M119 504q0 248 145 392t354 144q132 0 244 -54q36 -17 63 -38v658h-207v78h467v-1606h148v-78h-408v104q-118 -124 -353 -124q-78 0 -163.5 30.5t-150 95.5t-102 165.5t-37.5 232.5zM399 514q0 -327 141 -412q48 -30 122 -30h2q76 0 145.5 41.5t115.5 110.5v618 q-77 80 -196 104q-36 8 -69 8q-261 0 -261 -440z" />
<glyph unicode="e" horiz-adv-x="1194" d="M97 514.5q0 232.5 152 378.5t386 146q344 0 433 -288q29 -92 29 -207h-724v-30q0 -309 175 -406q59 -33 141 -33q182 0 330 148l53 -48q-157 -195 -447 -195q-96 0 -200 40.5t-177 111.5q-151 150 -151 382.5zM378 626h450q-2 160 -49 244.5t-154 84.5q-217 0 -247 -329z " />
<glyph unicode="f" horiz-adv-x="855" d="M125 0v78h162v867h-162v78h162v253q0 208 104 316t277 108q135 0 218.5 -70t83.5 -166t-81 -130q-23 -9 -60 -9t-73 32t-36 73q0 116 106 133q-11 24 -47.5 41t-82.5 17q-86 0 -117 -72.5t-31 -223.5v-302h204l20 -78h-225v-867h210v-78h-632z" />
<glyph unicode="g" horiz-adv-x="1194" d="M98 -314q0 94 60 158t153 91q-81 14 -135 68t-54 109q0 90 50.5 153.5t126.5 102.5q-155 105 -155 279t131.5 283t304 109t291.5 -75q57 10 90 37q-64 37 -64 95.5t26 85.5q47 50 99 50t88.5 -35t36.5 -98t-68.5 -119.5t-137.5 -70.5q111 -109 111 -263t-132.5 -257.5 t-326.5 -103.5q-129 0 -231 47q-106 -45 -106 -117q0 -85 150 -85h281q474 0 474 -311q0 -186 -159 -282.5t-390 -96.5q-350 0 -470 139q-44 50 -44 107zM293 -284q0 -193 329 -193q168 0 260.5 60t92.5 150q0 124 -119 172q-43 17 -105 17h-305q-68 -18 -110.5 -74 t-42.5 -132zM388 655q0 -210 102 -265q40 -22 102 -22q216 0 216 294t-211 294q-168 0 -199 -184q-10 -55 -10 -117z" />
<glyph unicode="h" horiz-adv-x="1363" d="M45 1606v78h432v-785q146 141 344 141q133 0 237 -68q132 -88 132 -280v-614h162v-78h-584v78h162v634q0 117 -24.5 159t-55 58t-93 16t-140.5 -38t-140 -114v-715h162v-78h-584v78h162v1528h-172z" />
<glyph unicode="i" horiz-adv-x="683" d="M61 0v78h162v867h-148v78h413v-945h162v-78h-589zM217 1350q0 74 40 114t98 40q92 0 127 -84q11 -25 11 -54q0 -59 -40 -99t-97 -40t-98 39.5t-41 83.5z" />
<glyph unicode="j" horiz-adv-x="683" d="M63 -484q56 0 89.5 25.5t57 100.5t23.5 365v938h-147v78h412v-1068q0 -365 -222 -473q-85 -42 -193 -42zM230 1350q0 74 40 114t98 40q92 0 128 -84q10 -25 10 -54q0 -60 -40 -99.5t-97 -39.5t-98 39.5t-41 83.5z" />
<glyph unicode="k" horiz-adv-x="1367" d="M59 0v78h153v1528h-153v78h413v-1168l506 430h-186v77h446v-77h-131l-323 -270l416 -598h137v-78h-575v78h141l-302 445l-129 -108v-337h148v-78h-561z" />
<glyph unicode="l" horiz-adv-x="683" d="M53 1605v79h428v-1606h168v-78h-589v78h156v1527h-163z" />
<glyph unicode="m" horiz-adv-x="2042" d="M59 947v76h423v-114q143 131 309.5 131t271.5 -91q38 -33 63 -82q158 173 359 173q133 0 237 -68q132 -88 132 -280v-614h163v-78h-595v78h172v644q0 109 -26 150t-56.5 56.5t-75.5 15.5q-87 0 -160 -44t-121 -117q7 -42 7 -77v-628h163v-78h-585v78h162v651 q0 105 -23 144.5t-52.5 55t-74.5 15.5q-154 0 -270 -137v-729h163v-78h-585v78h162v869h-163z" />
<glyph unicode="n" horiz-adv-x="1365" d="M56 945v78h423v-128q150 145 343 145q133 0 236 -68q133 -88 133 -280v-614h162v-78h-604v78h182v634q0 117 -24.5 159t-55 58t-77.5 16q-163 0 -295 -151v-716h182v-78h-604v78h162v867h-163z" />
<glyph unicode="o" horiz-adv-x="1194" d="M72 512q0 236 150 382t377.5 146t375 -145.5t147.5 -382t-146.5 -384.5t-375.5 -148t-378.5 148t-149.5 384zM350 514q0 -212 48 -320q60 -131 199 -131q202 0 237 275q10 82 10 176q0 211 -48 316q-59 126 -199 126q-202 0 -237 -266q-10 -81 -10 -176z" />
<glyph unicode="p" horiz-adv-x="1365" d="M50 943v80h420v-109q116 126 354 126q79 0 164.5 -30.5t149.5 -95.5q140 -141 140 -394t-145 -396.5t-354 -143.5q-134 0 -247 55q-35 17 -62 38v-555h181v-78h-591v78h150v1425h-160zM470 180q75 -81 197 -106q36 -8 70 -8q261 0 261 440q0 327 -141 412q-47 29 -120 29 h-5q-76 -1 -146.5 -43t-115.5 -111v-613z" />
<glyph unicode="q" horiz-adv-x="1365" d="M104 504q0 249 145 392.5t354 143.5q132 0 245 -54q35 -17 62 -38v75h408v-78h-148v-1427h150v-78h-591v78h181v586q-118 -124 -354 -124q-77 0 -162.5 30.5t-150 95.5t-102 165.5t-37.5 232.5zM384 514q0 -327 141 -412q48 -30 122 -30h3q75 1 144.5 42t115.5 110v618 q-77 80 -196 104q-36 8 -69 8q-261 0 -261 -440z" />
<glyph unicode="r" horiz-adv-x="1024" d="M86 945v78h412v-138q161 155 348 155q60 0 106 -40t46 -102.5t-39 -101.5t-95 -39t-94.5 38.5t-38.5 95.5q0 23 8 47q-145 -44 -241 -149v-712h219v-77h-630v77h149v868h-150z" />
<glyph unicode="s" horiz-adv-x="1024" d="M135 0l4 301h92q0 -77 96.5 -158t244.5 -81t188 86q11 25 11 52q0 50 -68.5 92t-225 98t-246.5 144.5t-90 216t114 208.5t263.5 81t240.5 -74q28 9 44 44q6 12 6 29h76v-279h-88q-17 94 -90.5 146.5t-172.5 52.5t-152.5 -38.5t-53.5 -93.5t61.5 -100.5t174 -85 t176.5 -69.5q205 -99 205 -286.5t-210 -272.5q-82 -33 -167 -33q-177 0 -301 93q-32 -22 -36 -73h-96z" />
<glyph unicode="t" horiz-adv-x="853" d="M57 945v78h121v306q91 0 222 47q30 11 43 19v-372h329v-78h-329v-705q0 -92 38.5 -132.5t102.5 -40.5q100 0 180 89l53 -47q-72 -89 -196 -119q-41 -10 -86 -10q-357 0 -357 332v633h-121z" />
<glyph unicode="u" horiz-adv-x="1366" d="M49 945v78h402v-736q0 -211 195 -211q135 0 242 124v745h-173v78h431v-945h129v-78h-387v98q-133 -118 -287.5 -118t-261.5 62q-148 87 -148 291v612h-142z" />
<glyph unicode="v" horiz-adv-x="1195" d="M-1 945v78h527v-78h-129l300 -687l270 687h-135v78h364v-78h-130l-396 -965h-105l-462 965h-104z" />
<glyph unicode="w" horiz-adv-x="1706" d="M0 945v78h472v-78h-120l277 -630l284 708h70l318 -706l238 628h-146v78h346v-78h-111l-365 -965h-80l-321 693l-278 -693h-79l-436 965h-69z" />
<glyph unicode="x" horiz-adv-x="1195" d="M31 945v78h534v-78h-143l236 -312l257 312h-139v78h364v-78h-114l-317 -379l371 -488h101v-78h-529v78h128l-228 305l-252 -305h133v-78h-385v78h140l313 372l-371 495h-99z" />
<glyph unicode="y" horiz-adv-x="1195" d="M-4 945v78h539v-78h-139l302 -686l270 686h-175v78h375v-78h-102l-396 -965l-121 -272q-71 -141 -120.5 -188t-89.5 -63.5t-83 -16.5q-81 0 -135 44.5t-54 105.5t26.5 88.5t51 38t71 10.5t80 -35.5t33.5 -77.5t-25 -76q38 6 77 58.5t92 161.5l92 222l-462 965h-107z" />
<glyph unicode="z" horiz-adv-x="1024" d="M81 0v78l576 869h-224q-126 0 -176.5 -60.5t-72.5 -190.5h-71v327h826v-77l-570 -870h279q142 0 195 68q37 48 51 173h69v-317h-882z" />
<glyph unicode="{" horiz-adv-x="1024" d="M141 567v68q261 29 289 175q8 46 8 100l-23 384q0 262 242 396q91 51 230 74l20 -63q-277 -61 -277 -349q0 -52 4 -101l7 -101q11 -141 11 -184q0 -325 -325 -361v-8q325 -41 325 -391q0 -33 -4 -78l-14 -184q-4 -44 -4 -94q0 -285 277 -347l-20 -63q-252 40 -375 190 q-97 117 -97 280l23 352q0 139 -48 200q-66 85 -249 105z" />
<glyph unicode="|" horiz-adv-x="512" d="M192 -300v1986h128v-1986h-128z" />
<glyph unicode="}" horiz-adv-x="1024" d="M117 -497l20 -63q252 40 375 190q97 117 97 280l-23 352q0 139 48 200q66 85 249 105v68q-261 29 -289 175q-8 46 -8 100l23 384q0 262 -242 396q-91 51 -230 74l-20 -63q277 -61 277 -349q0 -52 -4 -101l-7 -101q-11 -141 -11 -184q0 -325 325 -361v-8 q-325 -41 -325 -391q0 -33 4 -78l14 -184q4 -44 4 -94q0 -285 -277 -347z" />
<glyph unicode="~" horiz-adv-x="1236" d="M181 651q56 100 95 143q80 88 149 88t120.5 -15.5t98.5 -33.5l92 -33q45 -16 82 -16q62 0 96.5 24.5t63.5 66.5l44 -25q-111 -236 -261 -236q-78 0 -166.5 35.5t-135 51.5t-89 16t-77 -28t-70.5 -68z" />
<glyph unicode="&#xa1;" horiz-adv-x="852" d="M265 38q0 19 3 34l111 1042h94l111 -1042q3 -15 3 -42q0 -61 -48 -107.5t-113 -46.5t-113 46.5t-48 115.5zM266 1419.5q0 68.5 45.5 114t114 45.5t114 -45.5t45.5 -113.5q0 -107 -96 -149q-29 -12 -63 -12q-68 0 -114 46t-46 114.5z" />
<glyph unicode="&#xa2;" horiz-adv-x="1197" d="M163 526q0 229 154 369.5t393 144.5l20 215h79l-20 -220q200 -22 277 -137q27 -41 27 -82q0 -71 -38.5 -113t-80.5 -42q-71 0 -110 37.5t-39 92.5q0 90 75 126q-15 11 -59.5 24.5t-113.5 13.5q-288 0 -288 -441q0 -316 174 -408q58 -30 135 -30q182 0 294 116l52 -48 q-83 -106 -241 -148q-58 -16 -97 -16h-44q-7 0 -14 1l-18 -236h-78l18 243q-206 29 -331.5 169t-125.5 369z" />
<glyph unicode="&#xa3;" horiz-adv-x="1367" d="M40 601l7 78h284l-26 171h-245l7 78h228q-32 250 27 380q36 80 98 132q122 105 302.5 105t281 -77t100.5 -187q0 -57 -38 -95t-88 -38t-86.5 33t-36.5 73q0 66 32 98t74 36q-16 33 -68.5 55.5t-123.5 22.5q-229 0 -224 -346q0 -63 18 -192h335l-7 -78h-316l13 -86 q7 -43 11 -85h279l-7 -78h-267l1 -23q0 -98 -23.5 -148.5t-81.5 -97.5q65 -8 122 -32l114 -48q144 -66 234 -66q81 0 184 134l33 43l63 -47l-38 -66q-159 -272 -311 -272q-81 0 -154 24t-143 53t-139 53t-119 24t-77 -15q-50 -28 -107 -87l-47 -52l-59 45q40 61 122 143 q178 207 165 393l-4 42h-299z" />
<glyph unicode="&#xa4;" horiz-adv-x="1368" d="M208 212l151 151q-77 109 -77 238.5t79 238.5l-151 152l100 101l154 -155q102 66 220.5 66t220.5 -66l155 155l100 -101l-152 -152q80 -107 80 -240t-80 -240l151 -151l-100 -101l-155 155q-101 -65 -221.5 -65t-220.5 67l-154 -153zM423 600.5q0 -109.5 75.5 -188.5 t185.5 -79t186.5 78.5t76.5 189t-76.5 189t-186.5 78.5t-185.5 -79t-75.5 -188.5z" />
<glyph unicode="&#xa5;" horiz-adv-x="1539" d="M10 1452v78h644v-78h-203l412 -719l403 719h-184v78h442v-78h-150l-440 -773h369l-7 -78h-377v-183h364l-7 -78h-357v-262h149v-78h-567v78h148v262h-414l7 78h407l1 171l-7 12h-388l7 78h334l-461 773h-125z" />
<glyph unicode="&#xa6;" horiz-adv-x="512" d="M192 -300v828h128v-828h-128zM194 820v864h128v-864h-128z" />
<glyph unicode="&#xa7;" horiz-adv-x="1366" d="M145 88h103q39 -155 159 -250t292 -95q225 0 301 105q26 35 26 80q0 95 -75 160.5t-263.5 127.5t-284 115t-150.5 111q-97 104 -97 253.5t94.5 240.5t255.5 126q-287 124 -334 303q-16 58 -16 136t42.5 149t115.5 120q152 101 377 101t341 -96q24 33 26 76h93v-372h-96 q-15 150 -120.5 229.5t-248 79.5t-235.5 -49t-93 -139.5t82 -159.5t345 -177q242 -87 338.5 -178t96.5 -223q0 -168 -103 -271t-276 -130q212 -82 295.5 -168.5t83.5 -200.5q0 -208 -149.5 -320t-360.5 -112t-360 84q-45 25 -75 52q-41 -46 -41 -116h-89v408zM358 821 q0 -84 64.5 -148t260.5 -149h26q219 0 293 105q24 35 24 80q0 95 -74 159t-298 138q-128 -4 -212 -52.5t-84 -132.5z" />
<glyph unicode="&#xa8;" horiz-adv-x="1019" d="M158 1352q0 64 36 100q37 35 74 35q65 0 101 -36t36 -74q0 -92 -76 -123q-23 -10 -49 -10q-49 0 -85.5 34.5t-36.5 73.5zM614 1352q0 64 36 100q37 35 74 35q65 0 101 -36t36 -74q0 -92 -76 -123q-23 -10 -49 -10q-49 0 -85.5 34.5t-36.5 73.5z" />
<glyph unicode="&#xa9;" horiz-adv-x="2243" d="M155 514.5q0 268.5 132 494.5t358.5 359t493 133t493.5 -132.5t359.5 -359.5t132.5 -494t-132.5 -492.5t-359 -358t-494.5 -132.5t-493.5 132.5t-357.5 357t-132 493zM261 512q0 -371 253 -634q80 -83 178 -142q204 -122 447.5 -122t443.5 120t317 326t117 451.5 t-117 453.5t-317 330t-443.5 122t-444.5 -122.5t-317.5 -330t-116.5 -452.5zM625 509.5q0 225.5 150.5 378t430.5 152.5q156 0 257 -95q21 32 27 78h90v-303h-90q-18 80 -93.5 140.5t-164 60.5t-140.5 -31q-156 -94 -156 -374t148 -380q56 -38 120 -38q103 0 177.5 51.5 t105.5 120.5l86 -51q-56 -153 -234 -215q-66 -23 -175.5 -23t-214 41.5t-176.5 113.5q-148 148 -148 373.5z" />
<glyph unicode="&#xaa;" horiz-adv-x="1028" d="M203 1223.5q0 78.5 70.5 128.5t176.5 50t183 -41v141q0 68 -23 91q-44 42 -115 42t-118 -18q53 -21 53 -65.5t-30.5 -70.5t-61.5 -26q-53 0 -82.5 24.5t-29.5 62.5q0 69 91 111.5t188 42.5q160 0 236.5 -56t76.5 -153v-326q0 -49 27 -49t49 25l40 -34q-20 -26 -61 -44.5 t-86 -18.5q-102 0 -138 74q-82 -74 -222 -74q-96 0 -160 52.5t-64 131zM392 1223q0 -81 72 -107q19 -7 38 -7q73 0 133 77v96q-61 52 -130 52q-113 0 -113 -111z" />
<glyph unicode="&#xab;" horiz-adv-x="1705" d="M218 459v79q292 177 408.5 266.5t185.5 151.5l46 -50q-86 -119 -177 -218l-176 -189l176 -189q91 -99 177 -219l-46 -50q-71 60 -147 117q-197 141 -288 199zM848 459v79q292 177 408.5 266.5t185.5 151.5l46 -50q-86 -119 -177 -218l-176 -189l176 -189q91 -99 177 -219 l-46 -50q-71 60 -147 117q-197 141 -288 199z" />
<glyph unicode="&#xac;" horiz-adv-x="1536" d="M310 545v100h869v-418h-104v318h-765z" />
<glyph unicode="&#xad;" horiz-adv-x="1229" />
<glyph unicode="&#xae;" horiz-adv-x="1695" d="M39 1146q0 220 109 409q163 283 480 372q102 29 213.5 29t214.5 -29t192 -81q181 -107 288.5 -293.5t107.5 -406.5t-107.5 -405t-291.5 -293.5t-402.5 -108.5t-403.5 108.5t-292.5 293.5t-107.5 405zM136 1145q0 -301 205.5 -512.5t502 -211.5t500.5 212.5t204 512 t-204 512.5q-128 135 -311 188q-91 27 -190.5 27t-190.5 -26.5t-170 -74.5q-158 -95 -252 -262t-94 -365zM405 737v78h97l1 684h-84v78h409q283 0 354 -145q23 -47 23 -102q0 -168 -202 -225q128 -32 164 -169q22 -82 44 -105t58 -23h25v-74h-114q-98 0 -124.5 21t-37.5 49 t-19 65q-20 92 -53 135q-52 72 -158 72h-112v-261h146v-78h-417zM676 1151h143q109 0 154.5 50.5t45.5 101.5q0 99 -45 147.5t-165 48.5h-133v-348z" />
<glyph unicode="&#xaf;" horiz-adv-x="1707" d="M505 1291v123h657v-123h-657z" />
<glyph unicode="&#xb0;" horiz-adv-x="1028" d="M169 1360q0 150 102.5 243t244.5 93t242.5 -93t100.5 -243t-99.5 -243.5t-243 -93.5t-245.5 93.5t-102 243.5zM308 1361q0 -151 110 -213q40 -22 97 -22q103 0 154 70.5t51 164.5q0 152 -109 211q-39 21 -96 21q-105 0 -156 -69.5t-51 -162.5z" />
<glyph unicode="&#xb1;" horiz-adv-x="1536" d="M270 0v100h446v445h-446v100h446v469h104v-469h446v-100h-446v-445h446v-100h-996z" />
<glyph unicode="&#xb2;" horiz-adv-x="854" d="M147 1544q0 71 80.5 110.5t154.5 39.5q301 0 301 -218q0 -132 -199 -274q-67 -48 -154 -100h280q42 0 57 68h52v-207h-566v55l121 100q234 193 234 367q0 108 -85 139q-25 9 -65.5 9t-75.5 -20q46 -18 46 -72.5t-48 -78.5q-17 -9 -40 -9q-46 0 -69.5 26.5t-23.5 64.5z " />
<glyph unicode="&#xb3;" horiz-adv-x="854" d="M122 1096q0 45 23.5 73t58.5 28q52 0 75.5 -28t23.5 -69t-37 -62q47 -17 91 -17q81 0 134.5 46t53.5 108q0 88 -101 121q-33 10 -74 10t-84 -10l-1 54q169 11 210 120q11 29 11 67.5t-37 67.5t-93.5 29t-92.5 -19q43 -19 43 -72.5t-49 -80.5q-16 -8 -39 -8q-45 0 -69 30 t-24 68q0 72 87 111q69 31 158 31q151 0 216.5 -46t65.5 -113q0 -124 -151 -181q80 -4 136.5 -51t56.5 -129t-82 -150t-222 -68q-190 0 -262 83q-26 30 -26 57z" />
<glyph unicode="&#xb4;" horiz-adv-x="1707" d="M528 1218l220 334q39 58 77 63q64 8 101 -20t40 -68q6 -84 -53 -121l-354 -222z" />
<glyph unicode="&#xb5;" horiz-adv-x="1366" d="M184 -441v1464h260v-726q0 -221 170 -221q110 0 212 117v830h258v-703q0 -207 100 -207q20 0 59 14l23 -62q-148 -85 -281.5 -85t-154.5 116q-125 -116 -280 -116t-256 111q55 -252 151 -478q6 -18 6 -40q0 -49 -42 -91t-78 -42q-63 0 -105 30t-42 89z" />
<glyph unicode="&#xb6;" horiz-adv-x="1707" d="M220 1182.5q0 238.5 162 370t422 131.5h716v-78h-171v-1908h-160l1 1908h-232v-1908h-160v968q-269 2 -423.5 140t-154.5 376.5z" />
<glyph unicode="&#xb7;" horiz-adv-x="683" d="M182 767q0 107 96 149q29 12 63 12q68 0 114 -46t46 -114.5t-45.5 -114t-114 -45.5t-114 45.5t-45.5 113.5z" />
<glyph unicode="&#xb8;" horiz-adv-x="1707" d="M386 -485q183 14 257 83q30 28 30 70q0 85 -146 85q-8 0 -19 -1h-24q-22 -1 -46 -4l55 269l93 -3l-27 -141q9 1 18 1h19q167 0 230 -81q24 -32 24 -79t-21 -83.5t-56 -66.5q-69 -58 -177 -91t-202 -33z" />
<glyph unicode="&#xb9;" horiz-adv-x="854" d="M205 963v59h118v595l-113 2v54l299 10v-661h133v-59h-437z" />
<glyph unicode="&#xba;" horiz-adv-x="1028" d="M151 1370.5q0 143.5 104 234.5t259.5 91t258.5 -90t103 -235t-101 -238t-260 -93t-261.5 93.5t-102.5 237zM362 1372q0 -270 151 -270t151 270q0 123 -30 185q-35 76 -120 76q-124 0 -146 -159q-6 -48 -6 -102z" />
<glyph unicode="&#xbb;" horiz-adv-x="1700" d="M217 91l46 -50q71 60 147 117q197 141 288 199l159 102v79q-292 177 -408.5 266.5t-185.5 151.5l-46 -50q86 -119 177 -218l176 -189l-176 -189q-91 -99 -177 -219zM843 91l46 -50q71 60 147 117q197 141 288 199l159 102v79q-292 177 -408.5 266.5t-185.5 151.5l-46 -50 q86 -119 177 -218l176 -189l-176 -189q-91 -99 -177 -219z" />
<glyph unicode="&#xbc;" horiz-adv-x="1712" d="M231 830v59h118v595l-113 2v54l299 10v-661h133v-59h-437zM239 0l1138 1530h99l-1135 -1530h-102zM893 174v64l352 481h160v-481h137l-32 -64h-106v-116h118v-59h-437v59h133v116h-325zM975 238h243v333z" />
<glyph unicode="&#xbd;" horiz-adv-x="1707" d="M213 832v59h118v595l-113 2v54l299 10v-661h133v-59h-437zM239 0l1138 1530h99l-1135 -1530h-102zM983 581q0 71 80.5 110.5t154.5 39.5q301 0 301 -218q0 -132 -199 -274q-67 -48 -154 -100h280q42 0 57 68h52v-207h-566v55l121 100q234 193 234 367q0 108 -85 139 q-25 9 -65.5 9t-75.5 -20q46 -18 46 -72.5t-48 -78.5q-17 -9 -40 -9q-46 0 -69.5 26.5t-23.5 64.5z" />
<glyph unicode="&#xbe;" horiz-adv-x="1712" d="M156 948q0 44 23.5 72t58.5 28q52 0 75.5 -28t23.5 -69t-37 -62q47 -17 91 -17q81 0 134.5 46t53.5 108q0 88 -101 120q-33 11 -74 11t-84 -10l-1 54q221 14 221 187q0 39 -37 68t-93.5 29t-92.5 -19q43 -19 43 -72.5t-49 -79.5q-16 -9 -39 -9q-46 0 -69.5 30t-23.5 67 q0 73 87 112q69 31 158 31q150 0 216 -46.5t66 -112.5q0 -124 -151 -181q80 -4 136.5 -51t56.5 -129t-82 -150t-222 -68q-190 0 -262 83q-26 30 -26 58zM239 0l1138 1530h99l-1135 -1530h-102zM893 174v64l352 481h160v-481h137l-32 -64h-106v-116h118v-59h-437v59h133v116 h-325zM975 238h243v333z" />
<glyph unicode="&#xbf;" horiz-adv-x="1364" d="M146 278q0 279 268 453q109 70 231 96l53 283h97l60 -303q-210 -71 -335 -226.5t-125 -339.5q0 -136 85 -219t255.5 -83t266.5 116q-52 15 -84.5 58t-32.5 90q0 79 46.5 127t117 48t118 -47.5t47.5 -116.5v-11q0 -5 -1 -10q0 -59 -38 -119.5t-104 -109.5 q-150 -111 -374 -111t-387.5 117t-163.5 308zM585 1415.5q0 68.5 45.5 114t114 45.5t114 -45.5t45.5 -113.5q0 -107 -96 -149q-29 -12 -63 -12q-68 0 -114 46t-46 114.5z" />
<glyph unicode="&#xc0;" horiz-adv-x="1534" d="M21 0v78h108l564 1452h116l603 -1452h102v-78h-545v78h150l-144 349h-607l-132 -349h180v-78h-395zM393.5 1856.5q-13.5 60.5 16 97.5t69.5 43t64 -4.5t50 -33.5l299 -267l-21 -41l-399 123q-65 22 -78.5 82.5zM398 505h545l-284 691z" />
<glyph unicode="&#xc1;" horiz-adv-x="1534" d="M21 0v78h108l564 1452h116l603 -1452h102v-78h-545v78h150l-144 349h-607l-132 -349h180v-78h-395zM398 505h545l-284 691zM627 1679l289 277q54 49 91 45q63 -8 93 -43.5t23 -75.5q-13 -82 -79 -106l-395 -137z" />
<glyph unicode="&#xc2;" horiz-adv-x="1534" d="M21 0v78h108l564 1452h116l603 -1452h102v-78h-545v78h150l-144 349h-607l-132 -349h180v-78h-395zM382 1646l263 290q58 64 93.5 64t52.5 -8q32 -13 59 -42l266 -303l-28 -37l-334 184l-344 -184zM398 505h545l-284 691z" />
<glyph unicode="&#xc3;" horiz-adv-x="1534" d="M21 0v78h108l564 1452h116l603 -1452h102v-78h-545v78h150l-144 349h-607l-132 -349h180v-78h-395zM379 1734q56 100 95 143q80 88 149.5 88t138.5 -33l103 -50q34 -15 70.5 -15t69 24.5t68.5 64.5l46 -33q-56 -100 -95 -143q-80 -88 -161 -88q-56 -3 -123 31.5 t-103 50.5t-73.5 16t-70 -24.5t-68.5 -64.5zM398 505h545l-284 691z" />
<glyph unicode="&#xc4;" horiz-adv-x="1534" d="M21 0v78h108l564 1452h116l603 -1452h102v-78h-545v78h150l-144 349h-607l-132 -349h180v-78h-395zM398 505h545l-284 691zM415 1809q0 65 37 101t74 36q63 0 99.5 -36.5t36.5 -75.5q0 -94 -76 -126q-23 -9 -49 -9q-50 0 -86 36t-36 74zM831 1809q0 65 37 101t74 36 q63 0 99.5 -36.5t36.5 -75.5q0 -94 -76 -126q-23 -9 -49 -9q-50 0 -86 36t-36 74z" />
<glyph unicode="&#xc5;" horiz-adv-x="1534" d="M21 0v78h108l564 1452h116l603 -1452h102v-78h-545v78h150l-144 349h-607l-132 -349h180v-78h-395zM398 505h545l-284 691zM539 1811.5q0 82.5 62 133.5t155.5 51t154 -51t60.5 -133.5t-60.5 -133.5t-154 -51t-155.5 51t-62 133.5zM657 1811q0 -132 98.5 -132t98.5 132 t-98.5 132t-98.5 -132z" />
<glyph unicode="&#xc6;" horiz-adv-x="2218" d="M-109 0v78h146l834 1374h-123v78h1293v-436h-78q-5 83 -14 147.5t-37 109.5q-59 92 -237 101h-447v-649h240q85 0 130.5 27.5t55.5 96.5q2 20 3.5 42.5t3.5 44.5h84v-516h-84q-2 23 -3.5 53t-3.5 50q-10 69 -56.5 96.5t-129.5 27.5h-240v-647h418q263 0 319 243 q16 70 21 144h78v-465h-1316v79h210v646h-417l-387 -647h186v-78h-449zM589 804h369l1 618z" />
<glyph unicode="&#xc7;" horiz-adv-x="1534" d="M96 779q0 324 209.5 547.5t582.5 223.5q202 0 352 -82q42 -23 67 -46q40 47 42 108h82v-419h-85q-29 166 -158.5 261t-281.5 95q-506 0 -502 -707q3 -281 112 -467q126 -215 366 -215q183 0 309.5 64.5t198.5 174.5l52 -48q-38 -91 -158 -174q-165 -115 -414 -115h-16 t-16 1l-20 -108q9 1 18 1h19q167 0 229 -81q25 -32 25 -79t-21 -83.5t-56 -66.5q-69 -58 -177 -91t-202 -33l-8 75q183 14 257 83q30 28 30 70q0 85 -146 85q-8 0 -20 -1h-24q-21 -1 -45 -4l49 240q-301 40 -475.5 253.5t-174.5 537.5z" />
<glyph unicode="&#xc8;" horiz-adv-x="1535" d="M71 0v79h200l1 1373h-201v78h1293v-436h-78q-5 83 -14 147.5t-38 109.5q-58 92 -236 101h-457v-628h250q85 0 130.5 27.5t55.5 96.5q2 20 3.5 42.5t3.5 44.5h84v-516h-84q-2 23 -3.5 53t-3.5 50q-10 69 -56.5 96.5t-129.5 27.5h-250v-668h428q263 0 319 243q16 70 21 144 h78v-465h-1316zM445.5 1856.5q-13.5 60.5 16 97.5t69.5 43t64 -4.5t50 -33.5l299 -267l-21 -41l-399 123q-65 22 -78.5 82.5z" />
<glyph unicode="&#xc9;" horiz-adv-x="1535" d="M71 0v79h200l1 1373h-201v78h1293v-436h-78q-5 83 -14 147.5t-38 109.5q-58 92 -236 101h-457v-628h250q85 0 130.5 27.5t55.5 96.5q2 20 3.5 42.5t3.5 44.5h84v-516h-84q-2 23 -3.5 53t-3.5 50q-10 69 -56.5 96.5t-129.5 27.5h-250v-668h428q263 0 319 243q16 70 21 144 h78v-465h-1316zM680 1679l289 277q54 49 91 45q63 -8 93 -43.5t23 -75.5q-13 -82 -79 -106l-395 -137z" />
<glyph unicode="&#xca;" horiz-adv-x="1535" d="M71 0v79h200l1 1373h-201v78h1293v-436h-78q-5 83 -14 147.5t-38 109.5q-58 92 -236 101h-457v-628h250q85 0 130.5 27.5t55.5 96.5q2 20 3.5 42.5t3.5 44.5h84v-516h-84q-2 23 -3.5 53t-3.5 50q-10 69 -56.5 96.5t-129.5 27.5h-250v-668h428q263 0 319 243q16 70 21 144 h78v-465h-1316zM435 1646l263 290q58 64 93.5 64t52.5 -8q32 -13 59 -42l266 -303l-28 -37l-334 184l-344 -184z" />
<glyph unicode="&#xcb;" horiz-adv-x="1535" d="M71 0v79h200l1 1373h-201v78h1293v-436h-78q-5 83 -14 147.5t-38 109.5q-58 92 -236 101h-457v-628h250q85 0 130.5 27.5t55.5 96.5q2 20 3.5 42.5t3.5 44.5h84v-516h-84q-2 23 -3.5 53t-3.5 50q-10 69 -56.5 96.5t-129.5 27.5h-250v-668h428q263 0 319 243q16 70 21 144 h78v-465h-1316zM468 1809q0 65 37 101t74 36q63 0 99.5 -36.5t36.5 -75.5q0 -94 -76 -126q-23 -9 -49 -9q-50 0 -86 36t-36 74zM884 1809q0 65 37 101t74 36q63 0 99.5 -36.5t36.5 -75.5q0 -94 -76 -126q-23 -9 -49 -9q-50 0 -86 36t-36 74z" />
<glyph unicode="&#xcc;" horiz-adv-x="854" d="M79.5 1856.5q-13.5 60.5 16 97.5t69.5 43t64 -4.5t50 -33.5l299 -267l-21 -41l-399 123q-65 22 -78.5 82.5zM108 0v78h197l1 1374h-198v78h664v-78h-197v-1374h197v-78h-664z" />
<glyph unicode="&#xcd;" horiz-adv-x="854" d="M95 0v78h197l1 1374h-198v78h664v-78h-197v-1374h197v-78h-664zM301 1679l289 277q54 49 91 45q63 -8 93 -43.5t23 -75.5q-13 -82 -79 -106l-395 -137z" />
<glyph unicode="&#xce;" horiz-adv-x="854" d="M56 1646l263 290q58 64 93.5 64t52.5 -8q32 -13 59 -42l266 -303l-28 -37l-334 184l-344 -184zM95 0v78h197l1 1374h-198v78h664v-78h-197v-1374h197v-78h-664z" />
<glyph unicode="&#xcf;" horiz-adv-x="854" d="M89 1809q0 65 37 101t74 36q63 0 99.5 -36.5t36.5 -75.5q0 -94 -76 -126q-23 -9 -49 -9q-50 0 -86 36t-36 74zM95 0v78h197l1 1374h-198v78h664v-78h-197v-1374h197v-78h-664zM505 1809q0 65 37 101t74 36q63 0 99.5 -36.5t36.5 -75.5q0 -94 -76 -126q-23 -9 -49 -9 q-50 0 -86 36t-36 74z" />
<glyph unicode="&#xd0;" horiz-adv-x="1707" d="M83 0v78h200v657h-170v78h170l1 639h-201v78h674q603 0 780 -381q73 -157 73 -372q0 -286 -166 -499q-134 -171 -389 -241q-134 -37 -312 -37h-660zM553 78h178q315 0 451 157t136 535v31q-6 362 -145.5 506.5t-428.5 144.5h-191v-639h390v-78h-390v-657z" />
<glyph unicode="&#xd1;" horiz-adv-x="1707" d="M93 0v78h174v1374h-174v78h453l810 -1205v1127h-194v78h475v-78h-183v-1452h-186l-903 1327v-1249h203v-78h-475zM526 1734q56 100 95 143q80 88 149.5 88t138.5 -33l103 -50q34 -15 70.5 -15t69 24.5t68.5 64.5l46 -33q-56 -100 -95 -143q-80 -88 -161 -88 q-56 -3 -123 31.5t-103 50.5t-73.5 16t-70 -24.5t-68.5 -64.5z" />
<glyph unicode="&#xd2;" horiz-adv-x="1711" d="M98 764.5q0 100.5 21.5 197t63.5 183.5q88 183 259.5 294t412.5 111q366 0 573 -244q185 -220 185 -544t-187 -544q-128 -150 -337 -208q-106 -30 -232.5 -30t-231.5 29.5t-189 82.5t-147.5 126.5t-105.5 161t-63.5 186t-21.5 199zM386.5 770.5q3.5 -283.5 103.5 -474.5 q124 -233 361 -233t365 233q38 69 73.5 185t35.5 243.5t-11.5 213t-35.5 162.5q-53 166 -158.5 266.5t-264.5 100.5q-248 0 -369 -222q-103 -191 -99.5 -474.5zM492.5 1856.5q-13.5 60.5 16 97.5t69.5 43t64 -4.5t50 -33.5l299 -267l-21 -41l-399 123q-65 22 -78.5 82.5z " />
<glyph unicode="&#xd3;" horiz-adv-x="1711" d="M98 764.5q0 100.5 21.5 197t63.5 183.5q88 183 259.5 294t412.5 111q366 0 573 -244q185 -220 185 -544t-187 -544q-128 -150 -337 -208q-106 -30 -232.5 -30t-231.5 29.5t-189 82.5t-147.5 126.5t-105.5 161t-63.5 186t-21.5 199zM386.5 770.5q3.5 -283.5 103.5 -474.5 q124 -233 361 -233t365 233q38 69 73.5 185t35.5 243.5t-11.5 213t-35.5 162.5q-53 166 -158.5 266.5t-264.5 100.5q-248 0 -369 -222q-103 -191 -99.5 -474.5zM727 1679l289 277q54 49 91 45q63 -8 93 -43.5t23 -75.5q-13 -82 -79 -106l-395 -137z" />
<glyph unicode="&#xd4;" horiz-adv-x="1711" d="M98 764.5q0 100.5 21.5 197t63.5 183.5q88 183 259.5 294t412.5 111q366 0 573 -244q185 -220 185 -544t-187 -544q-128 -150 -337 -208q-106 -30 -232.5 -30t-231.5 29.5t-189 82.5t-147.5 126.5t-105.5 161t-63.5 186t-21.5 199zM386.5 770.5q3.5 -283.5 103.5 -474.5 q124 -233 361 -233t365 233q38 69 73.5 185t35.5 243.5t-11.5 213t-35.5 162.5q-53 166 -158.5 266.5t-264.5 100.5q-248 0 -369 -222q-103 -191 -99.5 -474.5zM482 1646l263 290q58 64 93.5 64t52.5 -8q32 -13 59 -42l266 -303l-28 -37l-334 184l-344 -184z" />
<glyph unicode="&#xd5;" horiz-adv-x="1711" d="M98 764.5q0 100.5 21.5 197t63.5 183.5q88 183 259.5 294t412.5 111q366 0 573 -244q185 -220 185 -544t-187 -544q-128 -150 -337 -208q-106 -30 -232.5 -30t-231.5 29.5t-189 82.5t-147.5 126.5t-105.5 161t-63.5 186t-21.5 199zM386.5 770.5q3.5 -283.5 103.5 -474.5 q124 -233 361 -233t365 233q38 69 73.5 185t35.5 243.5t-11.5 213t-35.5 162.5q-53 166 -158.5 266.5t-264.5 100.5q-248 0 -369 -222q-103 -191 -99.5 -474.5zM479 1734q56 100 95 143q80 88 149.5 88t138.5 -33l103 -50q34 -15 70.5 -15t69 24.5t68.5 64.5l46 -33 q-56 -100 -95 -143q-80 -88 -161 -88q-56 -3 -123 31.5t-103 50.5t-73.5 16t-70 -24.5t-68.5 -64.5z" />
<glyph unicode="&#xd6;" horiz-adv-x="1711" d="M98 764.5q0 100.5 21.5 197t63.5 183.5q88 183 259.5 294t412.5 111q366 0 573 -244q185 -220 185 -544t-187 -544q-128 -150 -337 -208q-106 -30 -232.5 -30t-231.5 29.5t-189 82.5t-147.5 126.5t-105.5 161t-63.5 186t-21.5 199zM386.5 770.5q3.5 -283.5 103.5 -474.5 q124 -233 361 -233t365 233q38 69 73.5 185t35.5 243.5t-11.5 213t-35.5 162.5q-53 166 -158.5 266.5t-264.5 100.5q-248 0 -369 -222q-103 -191 -99.5 -474.5zM515 1809q0 65 37 101t74 36q63 0 99.5 -36.5t36.5 -75.5q0 -94 -76 -126q-23 -9 -49 -9q-50 0 -86 36t-36 74z M931 1809q0 65 37 101t74 36q63 0 99.5 -36.5t36.5 -75.5q0 -94 -76 -126q-23 -9 -49 -9q-50 0 -86 36t-36 74z" />
<glyph unicode="&#xd7;" horiz-adv-x="1536" d="M381 228l316 316l-316 316l71 71l316 -316l317 316l71 -71l-317 -316l317 -316l-70 -72l-318 317l-317 -317z" />
<glyph unicode="&#xd8;" horiz-adv-x="1711" d="M98 756q0 328 190 550q210 244 567 244q275 0 467 -145l111 135l92 -78l-117 -135q205 -221 205 -555t-187 -554q-128 -150 -337 -208q-106 -30 -234 -30q-282 0 -474 150l-115 -139l-92 78l122 141q-198 218 -198 546zM386 767q2 -217 66 -388l355 411l393 479 q-128 198 -345 198q-248 0 -369 -222q-103 -191 -100 -478zM505 269q125 -206 354 -206t357 233q109 198 109 444t-69 419l-377 -437z" />
<glyph unicode="&#xd9;" horiz-adv-x="1539" d="M46 1452v78h552v-78h-146v-927q0 -363 204 -430q68 -22 132.5 -22t112 6t94.5 23q105 40 172.5 144t67.5 297v909h-156v78h400v-78h-146v-923q0 -277 -144 -413t-391 -136q-465 0 -584 352q-32 94 -32 227l1 893h-137zM441.5 1856.5q-13.5 60.5 16 97.5t69.5 43t64 -4.5 t50 -33.5l299 -267l-21 -41l-399 123q-65 22 -78.5 82.5z" />
<glyph unicode="&#xda;" horiz-adv-x="1539" d="M46 1452v78h552v-78h-146v-927q0 -363 204 -430q68 -22 132.5 -22t112 6t94.5 23q105 40 172.5 144t67.5 297v909h-156v78h400v-78h-146v-923q0 -277 -144 -413t-391 -136q-465 0 -584 352q-32 94 -32 227l1 893h-137zM676 1679l289 277q54 49 91 45q63 -8 93 -43.5 t23 -75.5q-13 -82 -79 -106l-395 -137z" />
<glyph unicode="&#xdb;" horiz-adv-x="1539" d="M46 1452v78h552v-78h-146v-927q0 -363 204 -430q68 -22 132.5 -22t112 6t94.5 23q105 40 172.5 144t67.5 297v909h-156v78h400v-78h-146v-923q0 -277 -144 -413t-391 -136q-465 0 -584 352q-32 94 -32 227l1 893h-137zM431 1646l263 290q58 64 93.5 64t52.5 -8 q32 -13 59 -42l266 -303l-28 -37l-334 184l-344 -184z" />
<glyph unicode="&#xdc;" horiz-adv-x="1539" d="M46 1452v78h552v-78h-146v-927q0 -363 204 -430q68 -22 132.5 -22t112 6t94.5 23q105 40 172.5 144t67.5 297v909h-156v78h400v-78h-146v-923q0 -277 -144 -413t-391 -136q-465 0 -584 352q-32 94 -32 227l1 893h-137zM464 1809q0 65 37 101t74 36q63 0 99.5 -36.5 t36.5 -75.5q0 -94 -76 -126q-23 -9 -49 -9q-50 0 -86 36t-36 74zM880 1809q0 65 37 101t74 36q63 0 99.5 -36.5t36.5 -75.5q0 -94 -76 -126q-23 -9 -49 -9q-50 0 -86 36t-36 74z" />
<glyph unicode="&#xdd;" horiz-adv-x="1539" d="M10 1452v78h644v-78h-203l409 -719l406 719h-184v78h442v-78h-151l-457 -800v-574h199v-78h-667v78h198l1 512l-512 862h-125zM657 1679l289 277q54 49 91 45q63 -8 93 -43.5t23 -75.5q-13 -82 -79 -106l-395 -137z" />
<glyph unicode="&#xde;" horiz-adv-x="1364" d="M51 0v78h171l1 1374h-172v78h654v-78h-213v-226h179q639 0 639 -434q0 -214 -160 -344.5t-475 -130.5h-183v-239h213v-78h-654zM492 386h208q232 0 303 226q26 83 26 169q0 177 -80 276.5t-247 99.5h-210v-771z" />
<glyph unicode="&#xdf;" horiz-adv-x="1366" d="M22 945v78h178v82q0 262 139.5 420.5t364 158.5t342 -91t117.5 -219q0 -203 -185 -308q-122 -69 -154 -103.5t-32 -64t14.5 -47.5t38 -37t53.5 -38l58 -36q70 -39 128 -68q135 -68 192.5 -142.5t57.5 -162.5q0 -171 -110 -279t-298 -108q-129 0 -227.5 51t-112.5 117 q2 32 33 65t65 39q60 -117 175 -168q41 -19 85 -19q95 0 155.5 45t60.5 132.5t-154 171.5l-96 50q-126 65 -177 113q-101 95 -101 202t72 191q30 36 66 70q138 133 138 285t-62 221t-157 69q-228 0 -228 -428v-1187h-414v78h153v867h-178z" />
<glyph unicode="&#xe0;" horiz-adv-x="1195" d="M92 278.5q0 133.5 105 210t270.5 76.5t276.5 -83v238q0 121 -30 164t-70.5 60t-89.5 17q-77 0 -130 -17.5t-71 -35.5q46 -14 71 -70q8 -20 8 -48q0 -55 -40 -91.5t-80 -36.5q-70 0 -109 37t-39 89t19 85.5t51 60.5q61 51 153.5 78t173.5 27q225 0 333 -91t108 -254v-533 q0 -83 41 -83t79 50l52 -43q-68 -103 -222 -103q-54 0 -109.5 34t-77.5 97q-116 -133 -311 -133q-148 0 -255 82.5t-107 216zM237 1517q2 49 40 77t78.5 23.5t60.5 -20t40 -45.5l220 -334l-31 -34l-354 222q-59 36 -54 111zM358 276q0 -155 109 -188q31 -10 63 -10 q91 0 174 70q24 21 43 45v200q-85 83 -186 83t-152 -47.5t-51 -152.5z" />
<glyph unicode="&#xe1;" horiz-adv-x="1195" d="M92 278.5q0 133.5 105 210t270.5 76.5t276.5 -83v238q0 121 -30 164t-70.5 60t-89.5 17q-77 0 -130 -17.5t-71 -35.5q46 -14 71 -70q8 -20 8 -48q0 -55 -40 -91.5t-80 -36.5q-70 0 -109 37t-39 89t19 85.5t51 60.5q61 51 153.5 78t173.5 27q225 0 333 -91t108 -254v-533 q0 -83 41 -83t79 50l52 -43q-68 -103 -222 -103q-54 0 -109.5 34t-77.5 97q-116 -133 -311 -133q-148 0 -255 82.5t-107 216zM358 276q0 -155 109 -188q31 -10 63 -10q91 0 174 70q24 21 43 45v200q-85 83 -186 83t-152 -47.5t-51 -152.5zM478 1218l220 334q39 58 77 63 q64 8 101 -20t40 -68q6 -84 -53 -121l-354 -222z" />
<glyph unicode="&#xe2;" horiz-adv-x="1195" d="M92 278.5q0 133.5 105 210t270.5 76.5t276.5 -83v238q0 121 -30 164t-70.5 60t-89.5 17q-77 0 -130 -17.5t-71 -35.5q46 -14 71 -70q8 -20 8 -48q0 -55 -40 -91.5t-80 -36.5q-70 0 -109 37t-39 89t19 85.5t51 60.5q61 51 153.5 78t173.5 27q225 0 333 -91t108 -254v-533 q0 -83 41 -83t79 50l52 -43q-68 -103 -222 -103q-54 0 -109.5 34t-77.5 97q-116 -133 -311 -133q-148 0 -255 82.5t-107 216zM208 1212l266 323q47 64 111 64t114 -71l251 -318l-33 -31l-334 204l-344 -204zM358 276q0 -155 109 -188q31 -10 63 -10q91 0 174 70q24 21 43 45 v200q-85 83 -186 83t-152 -47.5t-51 -152.5z" />
<glyph unicode="&#xe3;" horiz-adv-x="1195" d="M92 278.5q0 133.5 105 210t270.5 76.5t276.5 -83v238q0 121 -30 164t-70.5 60t-89.5 17q-77 0 -130 -17.5t-71 -35.5q46 -14 71 -70q8 -20 8 -48q0 -55 -40 -91.5t-80 -36.5q-70 0 -109 37t-39 89t19 85.5t51 60.5q61 51 153.5 78t173.5 27q225 0 333 -91t108 -254v-533 q0 -83 41 -83t79 50l52 -43q-68 -103 -222 -103q-54 0 -109.5 34t-77.5 97q-116 -133 -311 -133q-148 0 -255 82.5t-107 216zM203 1286q56 100 95 143q80 88 149 88t135 -33.5t99 -49t64 -15.5q79 0 126 54q14 16 26 33l47 -31q-111 -236 -261 -236q-56 0 -122.5 35.5 t-101.5 51.5t-72 16t-69.5 -24.5t-68.5 -64.5zM358 276q0 -155 109 -188q31 -10 63 -10q91 0 174 70q24 21 43 45v200q-85 83 -186 83t-152 -47.5t-51 -152.5z" />
<glyph unicode="&#xe4;" horiz-adv-x="1195" d="M92 278.5q0 133.5 105 210t270.5 76.5t276.5 -83v238q0 121 -30 164t-70.5 60t-89.5 17q-77 0 -130 -17.5t-71 -35.5q46 -14 71 -70q8 -20 8 -48q0 -55 -40 -91.5t-80 -36.5q-70 0 -109 37t-39 89t19 85.5t51 60.5q61 51 153.5 78t173.5 27q225 0 333 -91t108 -254v-533 q0 -83 41 -83t79 50l52 -43q-68 -103 -222 -103q-54 0 -109.5 34t-77.5 97q-116 -133 -311 -133q-148 0 -255 82.5t-107 216zM226 1352q0 64 36 100q37 35 74 35q65 0 101 -36t36 -74q0 -92 -76 -123q-23 -10 -49 -10q-49 0 -85.5 34.5t-36.5 73.5zM358 276q0 -155 109 -188 q31 -10 63 -10q91 0 174 70q24 21 43 45v200q-85 83 -186 83t-152 -47.5t-51 -152.5zM682 1352q0 64 36 100q37 35 74 35q65 0 101 -36t36 -74q0 -92 -76 -123q-23 -10 -49 -10q-49 0 -85.5 34.5t-36.5 73.5z" />
<glyph unicode="&#xe5;" horiz-adv-x="1195" d="M92 278.5q0 133.5 105 210t270.5 76.5t276.5 -83v238q0 121 -30 164t-70.5 60t-89.5 17q-77 0 -130 -17.5t-71 -35.5q46 -14 71 -70q8 -20 8 -48q0 -55 -40 -91.5t-80 -36.5q-70 0 -109 37t-39 89t19 85.5t51 60.5q61 51 153.5 78t173.5 27q225 0 333 -91t108 -254v-533 q0 -83 41 -83t79 50l52 -43q-68 -103 -222 -103q-54 0 -109.5 34t-77.5 97q-116 -133 -311 -133q-148 0 -255 82.5t-107 216zM295 1369q0 98 79 158t201 60t199 -59.5t77 -158.5t-77 -158.5t-198.5 -59.5t-201.5 59q-79 61 -79 159zM358 276q0 -155 109 -188q31 -10 63 -10 q91 0 174 70q24 21 43 45v200q-85 83 -186 83t-152 -47.5t-51 -152.5zM447 1368q0 -150 126.5 -150t126.5 150t-126.5 150t-126.5 -150z" />
<glyph unicode="&#xe6;" horiz-adv-x="1707" d="M64 277q0 135 105 211.5t259 76.5t258 -63v218q0 121 -30 164t-70.5 60t-89.5 17q-77 0 -130 -17.5t-71 -35.5q46 -14 71 -70q8 -20 8 -48q0 -55 -40 -91.5t-80 -36.5q-70 0 -109 37t-39 89t19 85.5t51 60.5q61 51 153.5 78t173.5 27q256 0 365 -123q123 123 334.5 123 t324 -129.5t112.5 -365.5h-695v-49q6 -295 173 -389q56 -31 131 -31q174 0 318 148l53 -48q-109 -135 -282 -180q-58 -15 -131 -15q-152 0 -256.5 41.5t-170.5 130.5q-33 -73 -131.5 -122.5t-197.5 -49.5q-182 0 -284 81t-102 216zM330 276q0 -156 100 -188q30 -10 72 -10 q76 0 126 28.5t61 53.5v247l-3 13q-75 56 -164.5 56t-140.5 -47.5t-51 -152.5zM949 626h423q-2 161 -46.5 245t-141.5 84q-205 0 -235 -329z" />
<glyph unicode="&#xe7;" horiz-adv-x="1026" d="M67 532.5q0 225.5 157.5 366.5t399.5 141q138 0 255.5 -61.5t117.5 -173.5q0 -60 -38 -98t-81 -38q-71 0 -110 33t-39 89q0 91 73 126q-74 46 -171 46q-288 0 -288 -449q0 -316 174 -408q58 -30 135 -30q182 0 294 116l52 -48q-83 -106 -241 -148q-58 -16 -106 -16t-74 2 l-21 -109q9 1 18 1h19q167 0 229 -81q25 -32 25 -79t-21 -83.5t-56 -66.5q-69 -58 -177 -91t-202 -33l-8 75q183 14 257 83q30 28 30 70q0 85 -146 85q-8 0 -20 -1h-24q-21 -1 -45 -4l50 247q-190 39 -304 175.5t-114 362z" />
<glyph unicode="&#xe8;" horiz-adv-x="1194" d="M97 514.5q0 232.5 152 378.5t386 146q344 0 433 -288q29 -92 29 -207h-724v-30q0 -309 175 -406q59 -33 141 -33q182 0 330 148l53 -48q-157 -195 -447 -195q-96 0 -200 40.5t-177 111.5q-151 150 -151 382.5zM262 1517q2 49 40 77t78.5 23.5t60.5 -20t40 -45.5l220 -334 l-31 -34l-354 222q-59 36 -54 111zM378 626h450q-2 160 -49 244.5t-154 84.5q-217 0 -247 -329z" />
<glyph unicode="&#xe9;" horiz-adv-x="1194" d="M97 514.5q0 232.5 152 378.5t386 146q344 0 433 -288q29 -92 29 -207h-724v-30q0 -309 175 -406q59 -33 141 -33q182 0 330 148l53 -48q-157 -195 -447 -195q-96 0 -200 40.5t-177 111.5q-151 150 -151 382.5zM378 626h450q-2 160 -49 244.5t-154 84.5q-217 0 -247 -329z M503 1218l220 334q39 58 77 63q64 8 101 -20t40 -68q6 -84 -53 -121l-354 -222z" />
<glyph unicode="&#xea;" horiz-adv-x="1194" d="M97 514.5q0 232.5 152 378.5t386 146q344 0 433 -288q29 -92 29 -207h-724v-30q0 -309 175 -406q59 -33 141 -33q182 0 330 148l53 -48q-157 -195 -447 -195q-96 0 -200 40.5t-177 111.5q-151 150 -151 382.5zM233 1212l266 323q47 64 111 64t114 -71l251 -318l-33 -31 l-334 204l-344 -204zM378 626h450q-2 160 -49 244.5t-154 84.5q-217 0 -247 -329z" />
<glyph unicode="&#xeb;" horiz-adv-x="1194" d="M97 514.5q0 232.5 152 378.5t386 146q344 0 433 -288q29 -92 29 -207h-724v-30q0 -309 175 -406q59 -33 141 -33q182 0 330 148l53 -48q-157 -195 -447 -195q-96 0 -200 40.5t-177 111.5q-151 150 -151 382.5zM251 1352q0 64 36 100q37 35 74 35q65 0 101 -36t36 -74 q0 -92 -76 -123q-23 -10 -49 -10q-49 0 -85.5 34.5t-36.5 73.5zM378 626h450q-2 160 -49 244.5t-154 84.5q-217 0 -247 -329zM707 1352q0 64 36 100q37 35 74 35q65 0 101 -36t36 -74q0 -92 -76 -123q-23 -10 -49 -10q-49 0 -85.5 34.5t-36.5 73.5z" />
<glyph unicode="&#xec;" horiz-adv-x="683" d="M12 1517q2 49 40 77t78.5 23.5t60.5 -20t40 -45.5l220 -334l-31 -34l-354 222q-59 36 -54 111zM66 0v78h162v867h-148v78h413v-945h162v-78h-589z" />
<glyph unicode="&#xed;" horiz-adv-x="683" d="M61 0v78h162v867h-148v78h413v-945h162v-78h-589zM248 1218l220 334q39 58 77 63q64 8 101 -20t40 -68q6 -84 -53 -121l-354 -222z" />
<glyph unicode="&#xee;" horiz-adv-x="683" d="M-22 1212l266 323q47 64 111 64t114 -71l251 -318l-33 -31l-334 204l-344 -204zM61 0v78h162v867h-148v78h413v-945h162v-78h-589z" />
<glyph unicode="&#xef;" horiz-adv-x="683" d="M47 1352q0 64 36 100q37 35 75 35q63 0 100 -35q36 -37 36 -75q0 -92 -76 -123q-23 -10 -48 -10q-50 0 -86.5 34.5t-36.5 73.5zM61 0v78h162v867h-148v78h413v-945h162v-78h-589zM409 1352q0 64 36 100q37 35 75 35q63 0 100 -35q36 -37 36 -75q0 -92 -76 -123 q-23 -10 -48 -10q-50 0 -86.5 34.5t-36.5 73.5z" />
<glyph unicode="&#xf0;" horiz-adv-x="1362" d="M145 512.5q0 235.5 154.5 381.5t380.5 146q138 0 230 -50q-55 257 -243 428l-209 -181l-61 69l197 171q-137 98 -299 128l20 79q204 -27 373 -126l223 193l60 -69l-202 -176q214 -154 331 -399.5t117 -508.5l-1 -38q-9 -296 -155.5 -438t-377 -142t-384.5 148.5t-154 384 zM423 515q0 -450 257 -450q272 0 272 440q0 347 -172 429q-42 21 -108 21q-131 0 -190 -116t-59 -324z" />
<glyph unicode="&#xf1;" horiz-adv-x="1365" d="M56 945v78h423v-128q150 145 343 145q133 0 236 -68q133 -88 133 -280v-614h162v-78h-604v78h182v634q0 117 -24.5 159t-55 58t-77.5 16q-163 0 -295 -151v-716h182v-78h-604v78h162v867h-163zM331 1286q56 100 95 143q80 88 149 88t135 -33.5t99 -49t64 -15.5 q79 0 126 54q14 16 26 33l47 -31q-111 -236 -261 -236q-56 0 -122.5 35.5t-101.5 51.5t-72 16t-69.5 -24.5t-68.5 -64.5z" />
<glyph unicode="&#xf2;" horiz-adv-x="1194" d="M72 512q0 236 150 382t377.5 146t375 -145.5t147.5 -382t-146.5 -384.5t-375.5 -148t-378.5 148t-149.5 384zM256 1517q2 49 40 77t78.5 23.5t60.5 -20t40 -45.5l220 -334l-31 -34l-354 222q-59 36 -54 111zM350 514q0 -212 48 -320q60 -131 199 -131q202 0 237 275 q10 82 10 176q0 211 -48 316q-59 126 -199 126q-202 0 -237 -266q-10 -81 -10 -176z" />
<glyph unicode="&#xf3;" horiz-adv-x="1194" d="M72 512q0 236 150 382t377.5 146t375 -145.5t147.5 -382t-146.5 -384.5t-375.5 -148t-378.5 148t-149.5 384zM350 514q0 -212 48 -320q60 -131 199 -131q202 0 237 275q10 82 10 176q0 211 -48 316q-59 126 -199 126q-202 0 -237 -266q-10 -81 -10 -176zM497 1218 l220 334q39 58 77 63q64 8 101 -20t40 -68q6 -84 -53 -121l-354 -222z" />
<glyph unicode="&#xf4;" horiz-adv-x="1194" d="M72 512q0 236 150 382t377.5 146t375 -145.5t147.5 -382t-146.5 -384.5t-375.5 -148t-378.5 148t-149.5 384zM227 1212l266 323q47 64 111 64t114 -71l251 -318l-33 -31l-334 204l-344 -204zM350 514q0 -212 48 -320q60 -131 199 -131q202 0 237 275q10 82 10 176 q0 211 -48 316q-59 126 -199 126q-202 0 -237 -266q-10 -81 -10 -176z" />
<glyph unicode="&#xf5;" horiz-adv-x="1194" d="M72 512q0 236 150 382t377.5 146t375 -145.5t147.5 -382t-146.5 -384.5t-375.5 -148t-378.5 148t-149.5 384zM222 1286q56 100 95 143q80 88 149 88t135 -33.5t99 -49t64 -15.5q79 0 126 54q14 16 26 33l47 -31q-111 -236 -261 -236q-56 0 -122.5 35.5t-101.5 51.5 t-72 16t-69.5 -24.5t-68.5 -64.5zM350 514q0 -212 48 -320q60 -131 199 -131q202 0 237 275q10 82 10 176q0 211 -48 316q-59 126 -199 126q-202 0 -237 -266q-10 -81 -10 -176z" />
<glyph unicode="&#xf6;" horiz-adv-x="1194" d="M72 512q0 236 150 382t377.5 146t375 -145.5t147.5 -382t-146.5 -384.5t-375.5 -148t-378.5 148t-149.5 384zM245 1352q0 64 36 100q37 35 74 35q65 0 101 -36t36 -74q0 -92 -76 -123q-23 -10 -49 -10q-49 0 -85.5 34.5t-36.5 73.5zM350 514q0 -212 48 -320 q60 -131 199 -131q202 0 237 275q10 82 10 176q0 211 -48 316q-59 126 -199 126q-202 0 -237 -266q-10 -81 -10 -176zM701 1352q0 64 36 100q37 35 74 35q65 0 101 -36t36 -74q0 -92 -76 -123q-23 -10 -49 -10q-49 0 -85.5 34.5t-36.5 73.5z" />
<glyph unicode="&#xf7;" horiz-adv-x="1536" d="M270 546v100h996v-100h-996zM640 963.5q0 55.5 27 81.5q48 46 100.5 46t89.5 -37t37 -90q0 -85 -77 -118q-23 -10 -62.5 -10t-77 36t-37.5 91.5zM641 222.5q0 55.5 27 81.5q48 46 100.5 46t89.5 -37t37 -90q0 -85 -77 -118q-23 -10 -62.5 -10t-77 36t-37.5 91.5z" />
<glyph unicode="&#xf8;" horiz-adv-x="1194" d="M61 66l116 113q-105 139 -105 336q0 233 150 379t360.5 146t349.5 -108l108 107l74 -63l-115 -108q123 -142 123 -367t-146.5 -373t-370 -148t-370.5 135l-109 -112zM350 510.5q0 -98.5 11 -175.5l198 208l243 271q-56 142 -205 142q-202 0 -237 -266q-10 -81 -10 -179.5 zM382 238q54 -175 215 -175q202 0 237 275q10 82 10 188t-15 190l-221 -231z" />
<glyph unicode="&#xf9;" horiz-adv-x="1366" d="M49 945v78h402v-736q0 -211 195 -211q135 0 242 124v745h-173v78h431v-945h129v-78h-387v98q-133 -118 -287.5 -118t-261.5 62q-148 87 -148 291v612h-142zM271 1517q2 49 40 77t78.5 23.5t60.5 -20t40 -45.5l220 -334l-31 -34l-354 222q-59 36 -54 111z" />
<glyph unicode="&#xfa;" horiz-adv-x="1366" d="M49 945v78h402v-736q0 -211 195 -211q135 0 242 124v745h-173v78h431v-945h129v-78h-387v98q-133 -118 -287.5 -118t-261.5 62q-148 87 -148 291v612h-142zM512 1218l220 334q39 58 77 63q64 8 101 -20t40 -68q6 -84 -53 -121l-354 -222z" />
<glyph unicode="&#xfb;" horiz-adv-x="1366" d="M49 945v78h402v-736q0 -211 195 -211q135 0 242 124v745h-173v78h431v-945h129v-78h-387v98q-133 -118 -287.5 -118t-261.5 62q-148 87 -148 291v612h-142zM242 1212l266 323q47 64 111 64t114 -71l251 -318l-33 -31l-334 204l-344 -204z" />
<glyph unicode="&#xfc;" horiz-adv-x="1366" d="M49 945v78h402v-736q0 -211 195 -211q135 0 242 124v745h-173v78h431v-945h129v-78h-387v98q-133 -118 -287.5 -118t-261.5 62q-148 87 -148 291v612h-142zM260 1352q0 64 36 100q37 35 74 35q65 0 101 -36t36 -74q0 -92 -76 -123q-23 -10 -49 -10q-49 0 -85.5 34.5 t-36.5 73.5zM716 1352q0 64 36 100q37 35 74 35q65 0 101 -36t36 -74q0 -92 -76 -123q-23 -10 -49 -10q-49 0 -85.5 34.5t-36.5 73.5z" />
<glyph unicode="&#xfd;" horiz-adv-x="1195" d="M-4 945v78h539v-78h-139l302 -686l270 686h-175v78h375v-78h-102l-396 -965l-121 -272q-71 -141 -120.5 -188t-89.5 -63.5t-83 -16.5q-81 0 -135 44.5t-54 105.5t26.5 88.5t51 38t71 10.5t80 -35.5t33.5 -77.5t-25 -76q38 6 77 58.5t92 161.5l92 222l-462 965h-107z M526 1218l220 334q39 58 77 63q64 8 101 -20t40 -68q6 -84 -53 -121l-354 -222z" />
<glyph unicode="&#xfe;" horiz-adv-x="1365" d="M61 -482h150l1 2086h-150v80h410v-769q120 125 331 125t343.5 -133.5t132.5 -386.5t-145 -396.5t-354 -143.5q-133 0 -246 54q-35 17 -62 38v-554h180v-78h-591v78zM472 179q78 -81 196 -105q36 -8 70 -8q261 0 261 440q0 327 -141 412q-49 30 -124.5 29t-145.5 -42.5 t-116 -110.5v-615z" />
<glyph unicode="&#xff;" horiz-adv-x="1195" d="M-4 945v78h539v-78h-139l302 -686l270 686h-175v78h375v-78h-102l-396 -965l-121 -272q-71 -141 -120.5 -188t-89.5 -63.5t-83 -16.5q-81 0 -135 44.5t-54 105.5t26.5 88.5t51 38t71 10.5t80 -35.5t33.5 -77.5t-25 -76q38 6 77 58.5t92 161.5l92 222l-462 965h-107z M274 1352q0 64 36 100q37 35 74 35q65 0 101 -36t36 -74q0 -92 -76 -123q-23 -10 -49 -10q-49 0 -85.5 34.5t-36.5 73.5zM730 1352q0 64 36 100q37 35 74 35q65 0 101 -36t36 -74q0 -92 -76 -123q-23 -10 -49 -10q-49 0 -85.5 34.5t-36.5 73.5z" />
<glyph unicode="&#x152;" horiz-adv-x="2390" d="M125 738q0 134 22.5 232t66.5 185q93 181 264.5 288t403.5 107q98 0 189 -20h1142v-436h-78q-5 83 -14 147.5t-37 109.5q-59 92 -237 101h-468v-628h261q85 0 130.5 27.5t55.5 96.5q2 20 3.5 42.5t3.5 44.5h84v-516h-84q-2 23 -3.5 53t-3.5 50q-10 69 -56.5 96.5 t-129.5 27.5h-261v-668h439q263 0 319 243q16 70 21 144h78v-465h-1161q-92 -20 -193 -20q-351 0 -558 230q-97 107 -148 250.5t-51 277.5zM424 602q47 -395 298 -496q70 -28 149 -28q141 0 238 66l1 1243q-99 63 -209 63t-180 -26t-123 -72q-99 -87 -146 -249 q-62 -215 -28 -501z" />
<glyph unicode="&#x153;" horiz-adv-x="1878" d="M72 512.5q0 236.5 150.5 381.5t381.5 145t374 -182q146 182 373.5 182t343 -129.5t115.5 -365.5h-707v-30q0 -196 78.5 -317.5t226.5 -121.5q180 0 330 148l53 -48q-108 -135 -290 -180q-60 -15 -123 -15q-253 0 -399 186q-144 -186 -375.5 -186t-381.5 148t-150 384.5z M350 514q0 -213 49 -320q60 -131 199 -131q201 0 236 275q10 82 10 176q0 211 -48 316q-58 125 -198 125q-203 0 -238 -265q-10 -81 -10 -176zM1107 626h436q-2 160 -51.5 244.5t-156.5 84.5q-202 0 -228 -329z" />
<glyph unicode="&#x178;" horiz-adv-x="1539" d="M10 1452v78h644v-78h-203l409 -719l406 719h-184v78h442v-78h-151l-457 -800v-574h199v-78h-667v78h198l1 512l-512 862h-125zM445 1809q0 65 37 101t74 36q63 0 99.5 -36.5t36.5 -75.5q0 -94 -76 -126q-23 -9 -49 -9q-50 0 -86 36t-36 74zM861 1809q0 65 37 101t74 36 q63 0 99.5 -36.5t36.5 -75.5q0 -94 -76 -126q-23 -9 -49 -9q-50 0 -86 36t-36 74z" />
<glyph unicode="&#x2c6;" horiz-adv-x="1707" d="M276 1212l266 323q47 64 111 64t114 -71l251 -318l-33 -31l-334 204l-344 -204z" />
<glyph unicode="&#x2dc;" horiz-adv-x="1707" d="M324 1286q56 100 95 143q80 88 149 88t135 -33.5t99 -49t64 -15.5q79 0 126 54q14 16 26 33l47 -31q-111 -236 -261 -236q-56 0 -122.5 35.5t-101.5 51.5t-72 16t-69.5 -24.5t-68.5 -64.5z" />
<glyph unicode="&#x2000;" horiz-adv-x="1000" />
<glyph unicode="&#x2001;" horiz-adv-x="2001" />
<glyph unicode="&#x2002;" horiz-adv-x="1000" />
<glyph unicode="&#x2003;" horiz-adv-x="2001" />
<glyph unicode="&#x2004;" horiz-adv-x="667" />
<glyph unicode="&#x2005;" horiz-adv-x="500" />
<glyph unicode="&#x2006;" horiz-adv-x="333" />
<glyph unicode="&#x2007;" horiz-adv-x="333" />
<glyph unicode="&#x2008;" horiz-adv-x="250" />
<glyph unicode="&#x2009;" horiz-adv-x="400" />
<glyph unicode="&#x200a;" horiz-adv-x="111" />
<glyph unicode="&#x2010;" horiz-adv-x="1198" d="M237 546v100h724v-100h-724z" />
<glyph unicode="&#x2011;" horiz-adv-x="1198" d="M237 546v100h724v-100h-724z" />
<glyph unicode="&#x2012;" horiz-adv-x="1198" d="M237 546v100h724v-100h-724z" />
<glyph unicode="&#x2013;" horiz-adv-x="1368" d="M186 546v100h996v-100h-996z" />
<glyph unicode="&#x2014;" horiz-adv-x="2051" d="M194 546v100h1662v-100h-1662z" />
<glyph unicode="&#x2018;" horiz-adv-x="684" d="M181 1224q0 137 73.5 266.5t154.5 179.5l52 -58q-77 -54 -119 -182q-13 -40 -16 -79h9q102 0 143 -95q12 -29 12 -64q0 -68 -44 -110.5t-93 -42.5q-86 0 -129 52t-43 133z" />
<glyph unicode="&#x2019;" horiz-adv-x="684" d="M194 1528q0 68 44 110.5t93 42.5q86 0 129 -52t43 -133q0 -137 -73.5 -266.5t-154.5 -179.5l-52 58q77 54 119 182q13 40 16 79h-9q-102 0 -143 95q-12 29 -12 64z" />
<glyph unicode="&#x201a;" horiz-adv-x="684" d="M194 159q0 68 44 110.5t93 42.5q87 0 129.5 -52t42.5 -133q0 -137 -73.5 -266.5t-154.5 -179.5l-52 58q77 58 119 183q13 39 16 78h-9q-102 0 -143 94q-12 30 -12 65z" />
<glyph unicode="&#x201c;" horiz-adv-x="1195" d="M191 1224q0 137 73.5 266.5t154.5 179.5l52 -58q-77 -54 -119 -182q-13 -40 -16 -79h9q102 0 143 -95q12 -29 12 -64q0 -68 -44 -110.5t-93 -42.5q-86 0 -129 52t-43 133zM681 1224q0 137 73.5 266.5t154.5 179.5l52 -58q-77 -54 -119 -182q-13 -40 -16 -79h9 q102 0 143 -95q12 -29 12 -64q0 -68 -44 -110.5t-93 -42.5q-86 0 -129 52t-43 133z" />
<glyph unicode="&#x201d;" horiz-adv-x="1195" d="M205 1528q0 68 44 110.5t93 42.5q86 0 129 -52t43 -133q0 -137 -73.5 -266.5t-154.5 -179.5l-52 58q77 54 119 182q13 40 16 79h-9q-102 0 -143 95q-12 29 -12 64zM695 1528q0 68 44 110.5t93 42.5q86 0 129 -52t43 -133q0 -137 -73.5 -266.5t-154.5 -179.5l-52 58 q77 54 119 182q13 40 16 79h-9q-102 0 -143 95q-12 29 -12 64z" />
<glyph unicode="&#x201e;" horiz-adv-x="1195" d="M205 160q0 68 44 110.5t93 42.5q86 0 129 -52t43 -133q0 -137 -73.5 -266.5t-154.5 -179.5l-52 58q77 54 119 182q13 40 16 79h-9q-102 0 -143 95q-12 29 -12 64zM695 160q0 68 44 110.5t93 42.5q86 0 129 -52t43 -133q0 -137 -73.5 -266.5t-154.5 -179.5l-52 58 q77 54 119 182q13 40 16 79h-9q-102 0 -143 95q-12 29 -12 64z" />
<glyph unicode="&#x2022;" horiz-adv-x="854" d="M188 543.5q0 100.5 68.5 170.5t170 70t170.5 -69t69 -171.5t-69.5 -170.5t-170 -68t-169.5 69t-69 169.5z" />
<glyph unicode="&#x2026;" horiz-adv-x="2049" d="M182 141q0 107 96 149q29 12 63 12q68 0 114 -46t46 -114.5t-45.5 -114t-114 -45.5t-114 45.5t-45.5 113.5zM865 141q0 107 96 149q29 12 63 12q68 0 114 -46t46 -114.5t-45.5 -114t-114 -45.5t-114 45.5t-45.5 113.5zM1548 141q0 107 96 149q29 12 63 12q68 0 114 -46 t46 -114.5t-45.5 -114t-114 -45.5t-114 45.5t-45.5 113.5z" />
<glyph unicode="&#x202f;" horiz-adv-x="400" />
<glyph unicode="&#x2039;" horiz-adv-x="1194" d="M277 459v79q292 177 408.5 266.5t185.5 151.5l46 -50q-86 -119 -177 -218l-176 -189l176 -189q91 -99 177 -219l-46 -50q-71 60 -147 117q-197 141 -288 199z" />
<glyph unicode="&#x203a;" horiz-adv-x="1194" d="M277 91l46 -50q71 60 147 117q197 141 288 199l159 102v79q-292 177 -408.5 266.5t-185.5 151.5l-46 -50q86 -119 177 -218l176 -189l-176 -189q-91 -99 -177 -219z" />
<glyph unicode="&#x205f;" horiz-adv-x="500" />
<glyph unicode="&#x20ac;" horiz-adv-x="1534" d="M40 601l7 78h164q-2 42 -2 85.5t3 85.5h-152l7 78h155q43 266 217.5 442.5t428.5 176.5q143 0 258 -91q31 -24 52 -48q29 47 41 99h95v-389h-105q-38 239 -193 315q-58 28 -140 28q-158 0 -250 -145t-113 -388h595l-7 -78h-593q-1 -21 -1 -42v-43q0 -44 3 -86h578l-7 -78 h-565q41 -372 228 -491q66 -42 151 -41q124 2 200.5 91.5t104.5 245.5h114q-36 -209 -161 -316.5t-273 -109.5q-284 -4 -454 158.5t-208 462.5h-178z" />
<glyph unicode="&#x2122;" horiz-adv-x="2051" d="M171 1318v211h679v-211h-61q-4 83 -23 107q-33 43 -113 45h-57v-558h103v-56h-376v56h102l1 558h-50q-85 0 -112.5 -33.5t-31.5 -118.5h-61zM946 856v56h78v552h-78v65h283l194 -437l192 437h264v-55h-80v-562h78v-56h-315v56h65v449l-209 -495h-71l-238 523v-477h79v-56 h-242z" />
<glyph unicode="&#x25fc;" horiz-adv-x="1025" d="M0 0v1025h1025v-1025h-1025z" />
<glyph unicode="&#xfb01;" horiz-adv-x="1370" d="M128 0v78h162v867h-162v78h162v212q0 231 156 355q136 110 351 110q145 0 251 -57q166 -89 166 -223q0 -72 -45.5 -114t-104 -42t-105 45t-46.5 110t57 107q18 14 41 19q-63 76 -202 76t-198.5 -86.5t-59.5 -318.5v-193h659v-945h162v-78h-589v78h162v867h-395v-867h162 v-78h-584z" />
<glyph unicode="&#xfb02;" horiz-adv-x="1534" d="M130 0v78h162v867h-162v78h162v212q0 465 483 465l236 -16h265v-1606h148v-78h-589v78h176v1520q-101 37 -195.5 37t-138.5 -19t-71 -67q-53 -92 -53 -333v-193h261v-78h-262v-867h172v-78h-594z" />
</font>
</defs>
</svg>
