<svg width="290" height="11" viewBox="0 0 290 11" fill="none" xmlns="http://www.w3.org/2000/svg">
<path d="M6 0.999774C10.5 -0.500302 60.5551 2.93329 99.4999 2.99984C129.847 3.0517 177 2.99984 217 1.99984C258.5 2.99984 285.841 3.99984 286.5 3.99984C287.842 3.99984 289.5 5.49984 289.5 6.49984C289.5 7.49984 288.5 8.49984 286.5 8.99984C286.021 9.11952 267.5 9.99985 244.5 9.99984C221.5 9.99982 85.4999 8.99984 80.9999 8.99984C77.9553 8.99984 34.5001 9.99939 21.0001 9.99969C7.5 10 2.14681 10.1468 1.50002 9.5C-0.499897 7.50015 1.5 2.49985 6 0.999774Z" fill="#3D1319"/>
</svg>
