<svg width="145" height="155" viewBox="0 0 145 155" fill="none" xmlns="http://www.w3.org/2000/svg">
<path fill-rule="evenodd" clip-rule="evenodd" d="M143.668 0C143.668 0 144.668 111.5 143.668 123C140.168 138 112.714 150.5 99.2136 131.5C90.2136 110.5 124.259 102 132.214 106.5V82V38.5C132.214 38.5 119.214 36.5 87.2136 42C55.2136 47.5 46.7136 52 46.7136 52C46.7136 52 46.7157 129.147 46.4647 132.323C46.4647 136.5 45.4659 139.221 44.7136 140.5C39.7136 149 29.2136 154.5 19.7136 154.5C10.2136 154.5 1.71623 150.589 0.168366 140.5C-2.28638 124.5 22.7136 114 35.2136 120.5C35.5127 88.8412 35.4582 77.7298 35.3144 48.4318C35.284 42.2264 35.2496 35.2051 35.2136 27C35.2136 27 67.9025 14.3907 89.2136 9C110.378 3.64638 143.668 0 143.668 0ZM89.2136 20.5C72.4211 24.6981 46.7136 35 46.7136 35V45C46.7136 45 72.4211 36.4171 89.2136 33C106.006 29.5829 132.714 27.5 132.714 27.5V13.5C132.714 13.5 106.006 16.3019 89.2136 20.5Z" fill="url(#paint0_linear)"/>
<defs>
<linearGradient id="paint0_linear" x1="-0.286377" y1="-0.5" x2="143.714" y2="-0.5" gradientUnits="userSpaceOnUse">
<stop stop-color="#F04E5F"/>
<stop offset="1" stop-color="#F6916A"/>
</linearGradient>
</defs>
</svg>
