<svg width="392" height="13" viewBox="0 0 392 13" fill="none" xmlns="http://www.w3.org/2000/svg">
<path d="M6.4389 12.5003C-2.5611 15.5003 -1.5611 2.50024 5.9389 1.00024C7.14322 0.759384 24.3359 1.56178 41.4389 1.50028L54.2144 0.93668C60.8374 0.511131 68.0604 0.000339508 75.4389 0.000339508C81.6924 -0.00986195 88.1704 0.535697 94.9163 1.11969L118.939 2.50024L159.858 1.28966C159.859 1.28961 159.861 1.28955 159.862 1.28949C174.826 0.659141 190.108 0.0154476 203.439 0.000227928C229.463 -0.0294809 251.439 2.85339 268.439 3.00023C278.583 3.08783 320.439 2.89277 324.439 3.00023C344.479 3.53856 344.939 6.00027 362.939 5.00024C380.939 4.00022 392.939 5.00024 390.939 5.00024C388.939 5.00024 384.939 5.92779 382.439 6.00024C379.939 6.0727 370.693 7.015 370.939 8.00024C371.185 8.98549 393.625 7.5788 389.939 8.50024C385.939 9.50024 364.939 12.0002 357.939 12.0003C350.939 12.0003 336.308 11.0832 322.439 11.0002C301.343 10.8741 268.439 12.5002 268.439 12.5002C257.053 12.4507 245.662 11.7369 234.08 11.0171L198.939 9.50023L145.743 11.132C136.619 11.5612 127.416 11.9256 117.439 12.0003C110.896 12.0493 101.262 11.6501 92.719 11.3411L79.9389 11.0002L56.2687 12.2299C50.9418 12.6459 45.9343 13.0058 41.4389 13.0003C34.2884 12.9915 29.0751 12.4646 24.3629 12.1673L20.9389 12.0003C13.3475 11.7701 7.34387 12.1986 6.4389 12.5003Z" fill="url(#paint0_linear)"/>
<defs>
<linearGradient id="paint0_linear" x1="391.439" y1="13.0003" x2="-2.06111" y2="13.0002" gradientUnits="userSpaceOnUse">
<stop stop-color="#BAFC7D"/>
<stop offset="1" stop-color="#3D923A"/>
</linearGradient>
</defs>
</svg>
